<svg data-v-423bf9ae="" xmlns="http://www.w3.org/2000/svg" viewBox="0 0 411 90" class="iconLeftSlogan"><!----><!----><!----><g data-v-423bf9ae="" id="21bfedf1-eae8-4725-9612-dd342cf6ddc8" fill="black" transform="matrix(5.474453012044838,0,0,5.474453012044838,110.93065566439273,-14.726279392488486)"><path d="M2.67 13.47L4.54 2.87L3.89 2.87C2.81 8.97 2.73 9.51 2.67 9.91L2.63 9.91C2.65 9.52 2.66 8.97 2.59 2.87L1.69 2.87L-0.17 13.47L0.48 13.47C1.76 6.03 1.88 5.42 1.99 4.62L2.04 4.62C2.03 5.40 2.07 6.20 2.28 13.47ZM6.38 13.47L6.52 12.67L4.90 12.67L5.64 8.44L7.27 8.44L7.39 7.70L5.77 7.70L6.48 3.64L8.12 3.64L8.26 2.87L5.95 2.87L4.09 13.47ZM10.63 13.47C10.63 12.91 10.65 12.67 10.82 11.33C10.98 10.23 11.03 9.79 11.03 9.27C11.03 8.95 10.99 8.67 10.79 8.51L10.81 8.46C10.98 8.40 11.16 8.23 11.33 7.91C11.52 7.49 11.63 7.13 11.84 5.94C12.03 4.91 12.08 4.41 12.08 3.95C12.08 3.36 11.82 2.87 11.16 2.87L9.62 2.87L7.76 13.47L8.43 13.47L9.24 8.81L9.88 8.81C10.30 8.81 10.36 9.00 10.36 9.42C10.36 9.73 10.29 10.19 10.12 11.48C9.95 12.57 9.91 12.99 9.91 13.23C9.91 13.33 9.91 13.38 9.93 13.47ZM9.37 8.11L10.15 3.63L10.96 3.63C11.30 3.63 11.41 3.85 11.41 4.19C11.41 4.44 11.34 4.83 11.17 5.84C10.93 7.18 10.84 7.53 10.64 7.81C10.46 8.06 10.29 8.11 9.98 8.11ZM13.36 13.47C14.06 13.47 14.36 13.29 14.67 12.66C14.94 12.04 15.11 11.54 15.65 8.39C16.13 5.73 16.25 4.79 16.25 4.20C16.25 3.37 16.09 2.87 15.22 2.87L13.76 2.87L11.90 13.47ZM12.70 12.68L14.29 3.64L15.06 3.64C15.54 3.64 15.60 3.92 15.60 4.38C15.60 4.87 15.46 5.66 14.99 8.27C14.48 11.21 14.35 11.68 14.15 12.18C13.99 12.57 13.82 12.68 13.37 12.68ZM16.65 9.93C16.44 10.78 16.24 11.68 16.24 12.53C16.24 13.27 16.55 13.65 17.21 13.65C17.79 13.65 18.13 13.52 18.41 13.02C18.68 12.57 18.87 11.86 19.04 11.00C19.28 9.77 19.32 9.45 19.32 9.13C19.32 8.74 19.18 8.48 19.00 8.26C18.76 7.98 18.19 7.50 18.02 7.25C17.89 7.06 17.85 6.90 17.85 6.71C17.85 6.51 17.91 6.17 18.07 5.19C18.17 4.63 18.24 4.33 18.37 4.00C18.52 3.58 18.70 3.44 19.03 3.44C19.36 3.44 19.54 3.54 19.54 3.92C19.54 4.62 19.38 5.46 19.18 6.16L19.80 6.16C20.02 5.31 20.19 4.48 20.19 3.77C20.19 2.98 19.82 2.69 19.15 2.69C18.49 2.69 18.14 2.94 17.86 3.54C17.70 3.91 17.56 4.40 17.46 5.00C17.28 6.06 17.22 6.48 17.22 6.76C17.22 7.14 17.28 7.38 17.53 7.71C17.70 7.94 18.24 8.43 18.47 8.74C18.62 8.95 18.68 9.06 18.68 9.25C18.68 9.42 18.63 9.72 18.42 10.86C18.27 11.70 18.10 12.26 17.92 12.59C17.77 12.84 17.60 12.88 17.35 12.88C16.94 12.88 16.87 12.63 16.87 12.32C16.87 11.56 17.07 10.77 17.25 9.93ZM25.27 13.47L25.27 13.41L24.91 11.12L26.15 8.16L26.17 8.09L25.52 8.09L24.74 10.11L24.68 10.11L24.40 7.78L24.85 7.42C25.49 6.87 25.68 6.57 25.91 5.24C26.07 4.34 26.14 3.86 26.14 3.53C26.14 2.81 25.86 2.69 25.28 2.69C24.26 2.69 24.02 2.97 23.74 4.54C23.59 5.35 23.55 5.67 23.55 5.99C23.55 6.24 23.58 6.51 23.63 6.89L23.73 7.56L23.41 7.85C22.65 8.54 22.48 8.92 22.26 10.19C22.02 11.52 21.94 12.19 21.94 12.66C21.94 13.52 22.25 13.65 22.92 13.65C23.67 13.65 24.05 13.27 24.43 12.15L24.47 12.15L24.65 13.47ZM23.90 12.00C23.62 12.67 23.46 12.85 23.13 12.85C22.81 12.85 22.64 12.81 22.64 12.35C22.64 12.00 22.74 11.41 22.90 10.44C23.14 9.11 23.23 8.83 23.56 8.47L23.86 8.19L24.26 11.10ZM24.30 7.15C24.19 6.61 24.15 6.29 24.15 5.99C24.15 5.68 24.19 5.40 24.30 4.76C24.53 3.54 24.61 3.39 25.13 3.39C25.41 3.39 25.55 3.42 25.55 3.79C25.55 4.03 25.49 4.42 25.37 5.10C25.13 6.43 25.10 6.47 24.60 6.89ZM31.14 13.47L33.00 2.87L32.35 2.87C31.28 8.97 31.19 9.51 31.14 9.91L31.09 9.91C31.11 9.52 31.12 8.97 31.05 2.87L30.16 2.87L28.29 13.47L28.94 13.47C30.23 6.03 30.34 5.42 30.45 4.62L30.51 4.62C30.49 5.40 30.53 6.20 30.74 13.47ZM33.26 13.47L35.13 2.87L34.43 2.87L32.56 13.47ZM36.16 13.47L37.88 3.64L38.89 3.64L39.03 2.87L36.30 2.87L36.16 3.64L37.20 3.64L35.48 13.47ZM41.22 13.47C41.22 12.91 41.24 12.67 41.41 11.33C41.57 10.23 41.62 9.79 41.62 9.27C41.62 8.95 41.58 8.67 41.38 8.51L41.40 8.46C41.57 8.40 41.75 8.23 41.92 7.91C42.11 7.49 42.22 7.13 42.43 5.94C42.62 4.91 42.67 4.41 42.67 3.95C42.67 3.36 42.41 2.87 41.75 2.87L40.21 2.87L38.35 13.47L39.02 13.47L39.83 8.81L40.47 8.81C40.89 8.81 40.95 9.00 40.95 9.42C40.95 9.73 40.88 10.19 40.71 11.48C40.54 12.57 40.50 12.99 40.50 13.23C40.50 13.33 40.50 13.38 40.52 13.47ZM39.96 8.11L40.74 3.63L41.55 3.63C41.89 3.63 42 3.85 42 4.19C42 4.44 41.93 4.83 41.76 5.84C41.52 7.18 41.43 7.53 41.23 7.81C41.05 8.06 40.88 8.11 40.57 8.11ZM45.01 12.78C45.30 12.14 45.49 11.49 46.03 8.43C46.54 5.56 46.66 4.62 46.66 3.98C46.66 3.19 46.49 2.69 45.63 2.69C44.97 2.69 44.60 2.91 44.31 3.56C44.02 4.21 43.83 4.83 43.29 7.94C42.78 10.79 42.67 11.75 42.67 12.35C42.67 13.20 42.95 13.65 43.69 13.65C44.37 13.65 44.72 13.44 45.01 12.78ZM44.51 12.31C44.34 12.73 44.18 12.85 43.83 12.85C43.51 12.85 43.36 12.74 43.36 12.19C43.36 11.63 43.46 10.89 43.96 8.08C44.49 5.01 44.63 4.55 44.84 3.99C44.98 3.60 45.18 3.44 45.50 3.44C45.85 3.44 45.99 3.57 46.00 3.98C46.02 4.52 45.95 5.04 45.37 8.32C44.84 11.26 44.72 11.79 44.51 12.31ZM49.06 10.71C48.85 11.96 48.78 12.21 48.58 12.52C48.43 12.75 48.23 12.85 47.96 12.85C47.52 12.85 47.39 12.63 47.39 12.28C47.39 12.03 47.46 11.65 47.61 10.71L49.00 2.87L48.29 2.87L46.90 10.71C46.73 11.62 46.68 12.11 46.68 12.46C46.68 13.26 47.08 13.65 47.81 13.65C48.41 13.65 48.85 13.47 49.13 12.96C49.39 12.52 49.49 12.12 49.74 10.71L51.13 2.87L50.44 2.87ZM51.18 9.93C50.97 10.78 50.78 11.68 50.78 12.53C50.78 13.27 51.09 13.65 51.74 13.65C52.33 13.65 52.67 13.52 52.95 13.02C53.21 12.57 53.41 11.86 53.58 11.00C53.82 9.77 53.86 9.45 53.86 9.13C53.86 8.74 53.72 8.48 53.54 8.26C53.30 7.98 52.72 7.50 52.56 7.25C52.43 7.06 52.39 6.90 52.39 6.71C52.39 6.51 52.44 6.17 52.61 5.19C52.71 4.63 52.78 4.33 52.91 4.00C53.06 3.58 53.24 3.44 53.56 3.44C53.90 3.44 54.08 3.54 54.08 3.92C54.08 4.62 53.91 5.46 53.72 6.16L54.33 6.16C54.56 5.31 54.73 4.48 54.73 3.77C54.73 2.98 54.36 2.69 53.69 2.69C53.03 2.69 52.68 2.94 52.40 3.54C52.23 3.91 52.09 4.40 52.00 5.00C51.81 6.06 51.76 6.48 51.76 6.76C51.76 7.14 51.81 7.38 52.07 7.71C52.23 7.94 52.78 8.43 53.00 8.74C53.16 8.95 53.21 9.06 53.21 9.25C53.21 9.42 53.17 9.72 52.96 10.86C52.81 11.70 52.64 12.26 52.46 12.59C52.30 12.84 52.14 12.88 51.88 12.88C51.48 12.88 51.41 12.63 51.41 12.32C51.41 11.56 51.60 10.77 51.79 9.93Z"></path></g><!----><g data-v-423bf9ae="" id="a9f8228b-95ab-4f73-a793-3f09b8fce5ba" transform="matrix(2.8125,0,0,2.8125,0,0)" stroke="none" fill="black"><path d="M0 16l16 16 16-16L16 0 0 16zm16 13.172L2.828 16 16 2.828 29.172 16 16 29.172z"></path><path d="M14.751 9.991v4.76h-2.262v-4.76H9.991v12.018h2.498v-4.76h2.262v4.76h2.498v-4.76h2.262v4.76h2.498V9.991h-2.498v4.76h-2.262v-4.76z"></path></g><!----><g data-v-423bf9ae="" id="a01daac6-5b0d-4174-acdd-4876c2bbb4d2" fill="black" transform="matrix(0.5823293316253036,0,0,0.5823293316253036,109.69718784586472,57.79297321882463)"><path d="M8.43 12.21C8.40 12.18 8.36 12.15 8.32 12.15C8.29 12.15 8.27 12.15 8.25 12.17C8.23 12.18 8.20 12.21 8.18 12.22C7.98 12.40 7.77 12.56 7.57 12.70C7.38 12.84 7.17 12.94 6.93 13.03C6.69 13.13 6.44 13.20 6.16 13.24C5.88 13.29 5.57 13.31 5.22 13.31C4.66 13.31 4.12 13.22 3.64 13.01C3.15 12.81 2.74 12.52 2.39 12.14C2.04 11.76 1.75 11.28 1.55 10.74C1.36 10.19 1.26 9.56 1.26 8.86C1.26 8.18 1.36 7.56 1.55 7.01C1.76 6.47 2.04 6.01 2.41 5.61C2.77 5.24 3.21 4.94 3.71 4.73C4.21 4.52 4.76 4.42 5.36 4.42C6.26 4.42 7.08 4.56 7.81 4.89C7.85 5.78 7.90 6.30 7.90 6.41C7.91 6.64 7.99 6.75 8.19 6.75L8.53 6.75L8.53 4.51C7.35 4.03 6.29 3.81 5.36 3.81C4.65 3.81 4.00 3.92 3.40 4.17C2.81 4.42 2.28 4.76 1.86 5.21C1.43 5.66 1.11 6.19 0.87 6.80C0.63 7.42 0.52 8.11 0.52 8.86C0.52 9.63 0.64 10.32 0.87 10.95C1.09 11.58 1.41 12.10 1.82 12.54C2.23 12.99 2.72 13.33 3.29 13.57C3.86 13.80 4.48 13.93 5.17 13.93C5.57 13.93 5.95 13.90 6.30 13.83C6.64 13.76 6.96 13.66 7.25 13.54C7.53 13.41 7.80 13.26 8.04 13.09C8.27 12.91 8.50 12.73 8.71 12.50ZM23.09 11.97C22.89 11.97 22.81 12.08 22.79 12.31C22.79 12.32 22.79 12.38 22.78 12.43C22.76 12.49 22.76 12.59 22.75 12.71C22.74 12.84 22.72 13.01 22.71 13.20L18.62 13.20L18.62 4.47C18.79 4.47 18.93 4.45 19.07 4.45C19.21 4.45 19.32 4.44 19.39 4.44L19.52 4.44C19.70 4.42 19.80 4.34 19.80 4.19L19.80 3.92L18.62 3.92L17.91 3.92L16.72 3.92L16.72 4.19C16.72 4.34 16.81 4.42 17.00 4.44L17.14 4.44C17.21 4.44 17.30 4.45 17.44 4.45C17.58 4.45 17.74 4.47 17.91 4.47L17.91 13.26C17.74 13.26 17.58 13.27 17.44 13.27C17.30 13.27 17.21 13.29 17.14 13.29L17.00 13.29C16.81 13.30 16.72 13.38 16.72 13.54L16.72 13.82L17.91 13.82L23.18 13.82L23.31 13.82L23.44 13.82L23.44 13.55L23.44 12.99L23.44 11.97L23.16 11.97ZM39.76 3.92L39.05 3.92L37.69 3.92L37.69 4.19C37.69 4.34 37.79 4.42 37.97 4.44L38.14 4.44C38.23 4.44 38.37 4.45 38.54 4.45C38.71 4.45 38.88 4.47 39.05 4.47L39.05 10.04C39.05 10.50 38.98 10.92 38.84 11.33C38.70 11.73 38.50 12.08 38.23 12.38C37.97 12.67 37.66 12.89 37.28 13.06C36.90 13.23 36.48 13.31 36.01 13.31C35.53 13.31 35.10 13.23 34.72 13.06C34.34 12.89 34.02 12.66 33.77 12.36C33.50 12.07 33.32 11.72 33.18 11.33C33.04 10.93 32.97 10.50 32.97 10.04L32.97 4.47C33.14 4.47 33.31 4.45 33.47 4.45C33.64 4.45 33.78 4.44 33.88 4.44L34.05 4.44C34.23 4.42 34.33 4.34 34.33 4.19L34.33 3.92L32.97 3.92L32.26 3.92L31.08 3.92L31.08 4.19C31.08 4.34 31.16 4.42 31.35 4.44L31.49 4.44C31.56 4.44 31.65 4.45 31.79 4.45C31.93 4.45 32.09 4.47 32.26 4.47L32.26 10.04C32.26 10.58 32.34 11.09 32.51 11.56C32.68 12.04 32.93 12.46 33.25 12.81C33.57 13.16 33.98 13.44 34.44 13.64C34.90 13.83 35.43 13.93 36.01 13.93C36.58 13.93 37.10 13.83 37.56 13.64C38.02 13.44 38.43 13.16 38.75 12.81C39.07 12.46 39.33 12.04 39.49 11.56C39.66 11.09 39.76 10.58 39.76 10.04L39.76 4.47C39.93 4.47 40.07 4.45 40.21 4.45C40.35 4.45 40.46 4.44 40.53 4.44L40.66 4.44C40.84 4.42 40.94 4.34 40.94 4.19L40.94 3.92ZM56.48 3.92L56.28 3.92L48.99 3.92L48.78 3.92L48.68 3.92L48.68 5.96L49.03 5.96C49.22 5.96 49.31 5.85 49.32 5.63C49.32 5.53 49.35 5.17 49.38 4.52L52.28 4.52L52.28 13.26C52.11 13.26 51.97 13.27 51.83 13.27C51.69 13.27 51.58 13.29 51.51 13.29L51.38 13.29C51.20 13.30 51.10 13.38 51.10 13.54L51.10 13.82L52.28 13.82L52.99 13.82L54.18 13.82L54.18 13.54C54.18 13.38 54.08 13.30 53.90 13.29L53.76 13.29C53.69 13.29 53.59 13.27 53.45 13.27C53.31 13.27 53.16 13.26 52.99 13.26L52.99 4.52L55.87 4.52C55.92 5.24 55.93 5.60 55.93 5.63C55.94 5.85 56.04 5.96 56.24 5.96L56.57 5.96L56.57 3.92ZM71.57 12.21C71.54 12.18 71.50 12.15 71.46 12.15C71.43 12.15 71.41 12.15 71.39 12.17C71.37 12.18 71.34 12.21 71.32 12.22C71.12 12.40 70.91 12.56 70.71 12.70C70.52 12.84 70.31 12.94 70.07 13.03C69.83 13.13 69.58 13.20 69.30 13.24C69.02 13.29 68.71 13.31 68.36 13.31C67.80 13.31 67.26 13.22 66.78 13.01C66.29 12.81 65.88 12.52 65.53 12.14C65.18 11.76 64.89 11.28 64.69 10.74C64.50 10.19 64.40 9.56 64.40 8.86C64.40 8.18 64.50 7.56 64.69 7.01C64.90 6.47 65.18 6.01 65.55 5.61C65.91 5.24 66.35 4.94 66.85 4.73C67.35 4.52 67.90 4.42 68.50 4.42C69.40 4.42 70.22 4.56 70.95 4.89C70.99 5.78 71.04 6.30 71.04 6.41C71.05 6.64 71.13 6.75 71.33 6.75L71.67 6.75L71.67 4.51C70.49 4.03 69.43 3.81 68.50 3.81C67.79 3.81 67.14 3.92 66.54 4.17C65.95 4.42 65.42 4.76 65.00 5.21C64.57 5.66 64.25 6.19 64.01 6.80C63.77 7.42 63.66 8.11 63.66 8.86C63.66 9.63 63.78 10.32 64.01 10.95C64.23 11.58 64.55 12.10 64.96 12.54C65.37 12.99 65.86 13.33 66.43 13.57C67.00 13.80 67.62 13.93 68.31 13.93C68.71 13.93 69.09 13.90 69.44 13.83C69.78 13.76 70.10 13.66 70.39 13.54C70.67 13.41 70.94 13.26 71.18 13.09C71.41 12.91 71.64 12.73 71.85 12.50ZM89.59 4.44C89.77 4.42 89.87 4.34 89.87 4.19L89.87 3.92L88.69 3.92L87.96 3.92L86.79 3.92L86.79 4.19C86.79 4.34 86.88 4.42 87.07 4.44L87.19 4.44C87.26 4.44 87.37 4.45 87.51 4.45C87.65 4.45 87.79 4.47 87.96 4.47L87.96 8.53L81.76 8.53L81.76 4.47C81.93 4.47 82.08 4.45 82.22 4.45C82.36 4.45 82.46 4.44 82.53 4.44L82.67 4.44C82.85 4.42 82.94 4.34 82.94 4.19L82.94 3.92L81.76 3.92L81.05 3.92L79.86 3.92L79.86 4.19C79.86 4.34 79.95 4.42 80.14 4.44L80.28 4.44C80.35 4.44 80.44 4.45 80.58 4.45C80.72 4.45 80.88 4.47 81.05 4.47L81.05 13.26C80.88 13.26 80.72 13.27 80.58 13.27C80.44 13.27 80.35 13.29 80.28 13.29L80.14 13.29C79.95 13.30 79.86 13.38 79.86 13.54L79.86 13.82L81.05 13.82L81.76 13.82L82.94 13.82L82.94 13.54C82.94 13.38 82.85 13.30 82.67 13.29L82.53 13.29C82.46 13.29 82.36 13.27 82.22 13.27C82.08 13.27 81.93 13.26 81.76 13.26L81.76 9.07L87.96 9.07L87.96 13.26C87.79 13.26 87.65 13.27 87.51 13.27C87.37 13.27 87.26 13.29 87.19 13.29L87.07 13.29C86.88 13.30 86.79 13.38 86.79 13.54L86.79 13.82L87.96 13.82L88.69 13.82L89.87 13.82L89.87 13.54C89.87 13.38 89.77 13.30 89.59 13.29L89.46 13.29C89.39 13.29 89.28 13.27 89.14 13.27C89.00 13.27 88.86 13.26 88.69 13.26L88.69 4.47C88.86 4.47 89.00 4.45 89.14 4.45C89.28 4.45 89.39 4.44 89.46 4.44ZM117.08 13.29L117.00 13.29L116.82 13.29C116.73 13.29 116.63 13.27 116.54 13.27L112.50 9.06C112.42 8.96 112.35 8.89 112.27 8.83C112.18 8.78 112.10 8.74 112.00 8.71C112.08 8.68 112.15 8.64 112.22 8.58C112.29 8.53 112.38 8.46 112.46 8.36L116.26 4.45L116.52 4.45C116.61 4.45 116.66 4.44 116.70 4.44L116.79 4.44C116.97 4.42 117.07 4.34 117.07 4.19L117.07 3.91L116.09 3.91L115.96 3.91L114.16 3.91L114.16 4.19C114.16 4.34 114.25 4.42 114.44 4.44L114.60 4.44C114.70 4.44 114.83 4.45 115.00 4.45L115.44 4.45L111.78 8.22C111.72 8.27 111.66 8.33 111.62 8.36C111.58 8.39 111.52 8.40 111.47 8.43C111.41 8.44 111.37 8.47 111.30 8.47C111.23 8.48 111.15 8.48 111.06 8.48L110.47 8.48L110.47 4.45C110.64 4.45 110.80 4.44 110.94 4.44C111.08 4.44 111.17 4.42 111.24 4.42L111.38 4.42C111.57 4.41 111.65 4.33 111.65 4.17L111.65 3.91L110.47 3.91L109.76 3.91L108.58 3.91L108.58 4.17C108.58 4.33 108.68 4.41 108.86 4.42L108.99 4.42C109.06 4.42 109.17 4.44 109.31 4.44C109.45 4.44 109.59 4.45 109.76 4.45L109.76 13.26C109.59 13.26 109.45 13.27 109.31 13.27C109.17 13.27 109.06 13.29 108.99 13.29L108.86 13.29C108.68 13.30 108.58 13.38 108.58 13.54L108.58 13.82L109.76 13.82L110.47 13.82L111.65 13.82L111.65 13.54C111.65 13.38 111.57 13.30 111.38 13.29L111.24 13.29C111.17 13.29 111.08 13.27 110.94 13.27C110.80 13.27 110.64 13.26 110.47 13.26L110.47 9.04L111.12 9.04C111.23 9.04 111.33 9.04 111.40 9.06C111.47 9.07 111.52 9.09 111.58 9.11C111.64 9.14 111.69 9.17 111.73 9.21C111.78 9.25 111.82 9.28 111.87 9.34L115.72 13.27C115.58 13.27 115.42 13.29 115.25 13.29L114.84 13.29L114.66 13.29C114.48 13.30 114.38 13.38 114.38 13.54L114.38 13.82L116.26 13.82L116.31 13.82L116.48 13.82L117.07 13.82L117.36 13.82L117.36 13.54C117.36 13.38 117.26 13.30 117.08 13.29ZM128.45 4.44C128.63 4.42 128.72 4.34 128.72 4.19L128.72 3.91L127.54 3.91L126.83 3.91L125.64 3.91L125.64 4.19C125.64 4.34 125.73 4.42 125.92 4.44L126.06 4.44C126.13 4.44 126.22 4.45 126.36 4.45C126.50 4.45 126.66 4.47 126.83 4.47L126.83 13.26C126.66 13.26 126.50 13.27 126.36 13.27C126.22 13.27 126.13 13.29 126.06 13.29L125.92 13.29C125.73 13.30 125.64 13.38 125.64 13.54L125.64 13.82L126.83 13.82L127.54 13.82L128.72 13.82L128.72 13.54C128.72 13.38 128.63 13.30 128.45 13.29L128.31 13.29C128.24 13.29 128.14 13.27 128.00 13.27C127.86 13.27 127.71 13.26 127.54 13.26L127.54 4.47C127.71 4.47 127.86 4.45 128.00 4.45C128.14 4.45 128.24 4.44 128.31 4.44ZM144.79 12.21C144.76 12.18 144.72 12.15 144.68 12.15C144.65 12.15 144.63 12.15 144.61 12.17C144.59 12.18 144.56 12.21 144.54 12.22C144.34 12.40 144.13 12.56 143.93 12.70C143.74 12.84 143.53 12.94 143.29 13.03C143.05 13.13 142.80 13.20 142.52 13.24C142.24 13.29 141.93 13.31 141.58 13.31C141.02 13.31 140.48 13.22 140.00 13.01C139.51 12.81 139.10 12.52 138.75 12.14C138.40 11.76 138.11 11.28 137.91 10.74C137.72 10.19 137.62 9.56 137.62 8.86C137.62 8.18 137.72 7.56 137.91 7.01C138.12 6.47 138.40 6.01 138.77 5.61C139.13 5.24 139.57 4.94 140.07 4.73C140.57 4.52 141.12 4.42 141.72 4.42C142.62 4.42 143.44 4.56 144.17 4.89C144.21 5.78 144.26 6.30 144.26 6.41C144.27 6.64 144.35 6.75 144.55 6.75L144.89 6.75L144.89 4.51C143.71 4.03 142.65 3.81 141.72 3.81C141.01 3.81 140.36 3.92 139.76 4.17C139.17 4.42 138.64 4.76 138.22 5.21C137.79 5.66 137.47 6.19 137.23 6.80C136.99 7.42 136.88 8.11 136.88 8.86C136.88 9.63 137.00 10.32 137.23 10.95C137.45 11.58 137.77 12.10 138.18 12.54C138.59 12.99 139.08 13.33 139.65 13.57C140.22 13.80 140.84 13.93 141.53 13.93C141.93 13.93 142.31 13.90 142.66 13.83C143.00 13.76 143.32 13.66 143.61 13.54C143.89 13.41 144.16 13.26 144.40 13.09C144.63 12.91 144.86 12.73 145.07 12.50ZM161.57 13.29L161.49 13.29L161.31 13.29C161.22 13.29 161.13 13.27 161.03 13.27L157.00 9.06C156.91 8.96 156.84 8.89 156.76 8.83C156.67 8.78 156.59 8.74 156.49 8.71C156.58 8.68 156.65 8.64 156.72 8.58C156.79 8.53 156.87 8.46 156.95 8.36L160.75 4.45L161.01 4.45C161.10 4.45 161.15 4.44 161.20 4.44L161.28 4.44C161.46 4.42 161.56 4.34 161.56 4.19L161.56 3.91L160.58 3.91L160.45 3.91L158.65 3.91L158.65 4.19C158.65 4.34 158.75 4.42 158.93 4.44L159.10 4.44C159.19 4.44 159.32 4.45 159.49 4.45L159.94 4.45L156.27 8.22C156.21 8.27 156.16 8.33 156.11 8.36C156.07 8.39 156.02 8.40 155.96 8.43C155.90 8.44 155.86 8.47 155.79 8.47C155.72 8.48 155.64 8.48 155.55 8.48L154.97 8.48L154.97 4.45C155.13 4.45 155.29 4.44 155.43 4.44C155.57 4.44 155.67 4.42 155.74 4.42L155.88 4.42C156.06 4.41 156.14 4.33 156.14 4.17L156.14 3.91L154.97 3.91L154.25 3.91L153.08 3.91L153.08 4.17C153.08 4.33 153.17 4.41 153.36 4.42L153.48 4.42C153.55 4.42 153.66 4.44 153.80 4.44C153.94 4.44 154.08 4.45 154.25 4.45L154.25 13.26C154.08 13.26 153.94 13.27 153.80 13.27C153.66 13.27 153.55 13.29 153.48 13.29L153.36 13.29C153.17 13.30 153.08 13.38 153.08 13.54L153.08 13.82L154.25 13.82L154.97 13.82L156.14 13.82L156.14 13.54C156.14 13.38 156.06 13.30 155.88 13.29L155.74 13.29C155.67 13.29 155.57 13.27 155.43 13.27C155.29 13.27 155.13 13.26 154.97 13.26L154.97 9.04L155.61 9.04C155.72 9.04 155.82 9.04 155.89 9.06C155.96 9.07 156.02 9.09 156.07 9.11C156.13 9.14 156.18 9.17 156.23 9.21C156.27 9.25 156.31 9.28 156.37 9.34L160.22 13.27C160.08 13.27 159.91 13.29 159.74 13.29L159.33 13.29L159.15 13.29C158.97 13.30 158.87 13.38 158.87 13.54L158.87 13.82L160.75 13.82L160.80 13.82L160.97 13.82L161.56 13.82L161.85 13.82L161.85 13.54C161.85 13.38 161.76 13.30 161.57 13.29ZM175.85 9.91C175.71 9.65 175.52 9.39 175.28 9.21C175.04 9.03 174.79 8.88 174.50 8.75C174.20 8.62 173.88 8.51 173.57 8.41C173.26 8.32 172.96 8.20 172.66 8.11C172.37 7.99 172.10 7.87 171.86 7.71C171.63 7.56 171.44 7.38 171.30 7.15C171.16 6.93 171.08 6.65 171.08 6.31C171.08 6.06 171.14 5.82 171.23 5.59C171.33 5.35 171.47 5.15 171.65 4.97C171.84 4.79 172.06 4.65 172.34 4.55C172.62 4.45 172.93 4.40 173.29 4.40C173.96 4.40 174.58 4.51 175.14 4.75C175.18 5.54 175.21 5.99 175.21 6.06C175.22 6.29 175.31 6.41 175.50 6.41L175.84 6.41L175.84 4.38C174.96 4.00 174.12 3.81 173.29 3.81C172.83 3.81 172.42 3.88 172.06 4.02C171.70 4.16 171.40 4.34 171.16 4.58C170.93 4.82 170.73 5.08 170.60 5.39C170.48 5.70 170.42 6.02 170.42 6.36C170.42 6.78 170.49 7.14 170.63 7.42C170.77 7.70 170.97 7.92 171.21 8.12C171.44 8.32 171.70 8.46 171.99 8.58C172.28 8.71 172.61 8.82 172.91 8.92C173.22 9.02 173.52 9.11 173.82 9.21C174.12 9.31 174.38 9.45 174.62 9.60C174.86 9.76 175.04 9.94 175.18 10.16C175.32 10.39 175.39 10.68 175.39 11.03C175.39 11.35 175.34 11.66 175.22 11.94C175.11 12.22 174.96 12.46 174.75 12.67C174.54 12.88 174.27 13.05 173.96 13.16C173.66 13.29 173.31 13.33 172.91 13.33C172.13 13.33 171.47 13.20 170.94 12.95C170.93 12.75 170.93 12.54 170.91 12.32C170.90 12.10 170.90 11.91 170.88 11.76C170.87 11.61 170.87 11.52 170.87 11.51C170.86 11.28 170.76 11.17 170.56 11.17L170.23 11.17L170.23 13.02L170.23 13.20L170.23 13.38C171.08 13.75 171.96 13.93 172.89 13.93C173.39 13.93 173.84 13.85 174.23 13.69C174.62 13.54 174.96 13.31 175.22 13.05C175.49 12.78 175.71 12.46 175.85 12.10C175.99 11.73 176.06 11.34 176.06 10.92C176.06 10.51 175.99 10.18 175.85 9.91ZM198.42 3.79C198.04 3.79 197.71 3.86 197.40 3.98C197.09 4.09 196.83 4.26 196.60 4.47C196.38 4.68 196.21 4.90 196.10 5.18C195.99 5.46 195.93 5.77 195.93 6.09C195.93 6.50 196.00 6.87 196.17 7.22C196.34 7.57 196.57 7.92 196.91 8.30C196.57 8.43 196.28 8.61 195.99 8.81C195.69 9.00 195.44 9.23 195.23 9.48C195.02 9.73 194.85 10.01 194.73 10.32C194.60 10.63 194.56 10.95 194.56 11.28C194.56 11.70 194.63 12.07 194.80 12.40C194.96 12.74 195.19 13.02 195.45 13.24C195.72 13.47 196.03 13.65 196.36 13.76C196.70 13.87 197.05 13.93 197.40 13.93C197.76 13.93 198.11 13.89 198.45 13.80C198.79 13.72 199.11 13.59 199.40 13.45C199.70 13.31 199.96 13.13 200.21 12.92C200.47 12.71 200.70 12.49 200.91 12.25L202.34 13.66C202.41 13.73 202.47 13.78 202.52 13.79C202.58 13.80 202.65 13.82 202.73 13.82L203.35 13.82L201.28 11.77C201.57 11.35 201.78 10.91 201.94 10.44C202.09 9.98 202.17 9.52 202.19 9.09L201.81 9.09C201.75 9.09 201.70 9.11 201.67 9.14C201.64 9.17 201.63 9.23 201.61 9.28C201.57 9.62 201.50 9.97 201.38 10.33C201.25 10.70 201.08 11.05 200.87 11.38L197.75 8.30C197.34 7.90 197.04 7.53 196.84 7.18C196.64 6.83 196.55 6.45 196.55 6.08C196.55 5.82 196.60 5.59 196.69 5.38C196.77 5.17 196.90 4.97 197.06 4.82C197.23 4.66 197.43 4.54 197.65 4.45C197.88 4.37 198.14 4.33 198.42 4.33C198.70 4.33 198.93 4.37 199.14 4.47C199.33 4.56 199.50 4.69 199.64 4.83C199.78 4.97 199.88 5.12 199.96 5.28C200.05 5.43 200.10 5.57 200.13 5.70C200.14 5.75 200.17 5.78 200.20 5.81C200.23 5.84 200.27 5.85 200.31 5.85C200.37 5.85 200.45 5.85 200.56 5.82C200.62 5.81 200.66 5.80 200.73 5.78C200.72 5.52 200.66 5.26 200.54 5.03C200.41 4.79 200.26 4.58 200.05 4.40C199.84 4.21 199.58 4.07 199.30 3.96C199.02 3.85 198.73 3.79 198.42 3.79ZM195.23 11.24C195.23 10.96 195.27 10.70 195.37 10.44C195.47 10.19 195.59 9.95 195.76 9.73C195.93 9.51 196.15 9.30 196.41 9.11C196.66 8.93 196.92 8.78 197.23 8.65C197.26 8.68 197.29 8.69 197.32 8.72L200.52 11.89C200.34 12.11 200.16 12.31 199.95 12.49C199.74 12.67 199.50 12.82 199.25 12.96C199.00 13.10 198.72 13.20 198.42 13.27C198.13 13.34 197.82 13.38 197.50 13.38C197.23 13.38 196.97 13.33 196.70 13.24C196.43 13.16 196.20 13.03 195.97 12.85C195.75 12.67 195.58 12.45 195.44 12.18C195.30 11.91 195.23 11.61 195.23 11.24ZM229.49 12.21C229.46 12.18 229.42 12.15 229.38 12.15C229.35 12.15 229.33 12.15 229.31 12.17C229.29 12.18 229.26 12.21 229.24 12.22C229.04 12.40 228.83 12.56 228.63 12.70C228.44 12.84 228.23 12.94 227.99 13.03C227.75 13.13 227.50 13.20 227.22 13.24C226.94 13.29 226.63 13.31 226.28 13.31C225.72 13.31 225.18 13.22 224.70 13.01C224.21 12.81 223.80 12.52 223.45 12.14C223.10 11.76 222.81 11.28 222.61 10.74C222.42 10.19 222.32 9.56 222.32 8.86C222.32 8.18 222.42 7.56 222.61 7.01C222.82 6.47 223.10 6.01 223.47 5.61C223.83 5.24 224.27 4.94 224.77 4.73C225.27 4.52 225.82 4.42 226.42 4.42C227.32 4.42 228.14 4.56 228.87 4.89C228.91 5.78 228.96 6.30 228.96 6.41C228.97 6.64 229.05 6.75 229.25 6.75L229.59 6.75L229.59 4.51C228.41 4.03 227.35 3.81 226.42 3.81C225.71 3.81 225.06 3.92 224.46 4.17C223.87 4.42 223.34 4.76 222.92 5.21C222.49 5.66 222.17 6.19 221.93 6.80C221.69 7.42 221.58 8.11 221.58 8.86C221.58 9.63 221.70 10.32 221.93 10.95C222.15 11.58 222.47 12.10 222.88 12.54C223.29 12.99 223.78 13.33 224.35 13.57C224.92 13.80 225.54 13.93 226.23 13.93C226.63 13.93 227.01 13.90 227.36 13.83C227.70 13.76 228.02 13.66 228.31 13.54C228.59 13.41 228.86 13.26 229.10 13.09C229.33 12.91 229.56 12.73 229.77 12.50ZM245.77 13.29L245.67 13.29L245.49 13.29C245.41 13.29 245.32 13.27 245.24 13.27L242.27 9.53C242.19 9.42 242.07 9.32 241.96 9.25C242.40 9.21 242.79 9.11 243.14 8.96C243.49 8.81 243.77 8.61 244.02 8.37C244.26 8.13 244.45 7.85 244.58 7.55C244.71 7.24 244.78 6.89 244.78 6.51C244.78 5.66 244.50 5.03 243.94 4.58C243.38 4.14 242.52 3.92 241.37 3.92L238.97 3.92L237.79 3.92L237.79 4.19C237.79 4.34 237.87 4.42 238.06 4.44L238.20 4.44C238.27 4.44 238.36 4.45 238.50 4.45C238.64 4.45 238.80 4.47 238.97 4.47L238.97 13.26C238.80 13.26 238.64 13.27 238.50 13.27C238.36 13.27 238.27 13.29 238.20 13.29L238.06 13.29C237.87 13.30 237.78 13.38 237.78 13.54L237.78 13.82L238.97 13.82L239.68 13.82L240.86 13.82L240.86 13.54C240.86 13.38 240.76 13.30 240.58 13.29L240.44 13.29C240.37 13.29 240.27 13.27 240.13 13.27C239.99 13.27 239.85 13.26 239.68 13.26L239.68 9.34L240.86 9.34C241.05 9.34 241.19 9.35 241.28 9.39C241.36 9.44 241.44 9.52 241.53 9.62L244.71 13.64C244.76 13.71 244.80 13.75 244.86 13.78C244.92 13.80 244.99 13.82 245.06 13.82L245.13 13.82L245.67 13.82L246.04 13.82L246.04 13.54C246.04 13.38 245.95 13.30 245.77 13.29ZM241.28 8.81L239.68 8.81L239.68 4.48L241.37 4.48C242.26 4.48 242.93 4.66 243.39 5.00C243.85 5.33 244.08 5.87 244.08 6.57C244.08 6.92 244.02 7.21 243.89 7.49C243.77 7.77 243.57 7.99 243.33 8.19C243.10 8.39 242.80 8.55 242.45 8.65C242.10 8.75 241.71 8.81 241.28 8.81ZM257.05 4.44C257.24 4.42 257.32 4.34 257.32 4.19L257.32 3.91L256.14 3.91L255.43 3.91L254.24 3.91L254.24 4.19C254.24 4.34 254.34 4.42 254.52 4.44L254.66 4.44C254.73 4.44 254.83 4.45 254.97 4.45C255.11 4.45 255.26 4.47 255.43 4.47L255.43 13.26C255.26 13.26 255.11 13.27 254.97 13.27C254.83 13.27 254.73 13.29 254.66 13.29L254.52 13.29C254.34 13.30 254.24 13.38 254.24 13.54L254.24 13.82L255.43 13.82L256.14 13.82L257.32 13.82L257.32 13.54C257.32 13.38 257.24 13.30 257.05 13.29L256.91 13.29C256.84 13.29 256.75 13.27 256.61 13.27C256.47 13.27 256.31 13.26 256.14 13.26L256.14 4.47C256.31 4.47 256.47 4.45 256.61 4.45C256.75 4.45 256.84 4.44 256.91 4.44ZM273.18 3.92L272.99 3.92L265.69 3.92L265.48 3.92L265.38 3.92L265.38 5.96L265.73 5.96C265.93 5.96 266.01 5.85 266.03 5.63C266.03 5.53 266.06 5.17 266.08 4.52L268.98 4.52L268.98 13.26C268.81 13.26 268.67 13.27 268.53 13.27C268.39 13.27 268.28 13.29 268.21 13.29L268.09 13.29C267.90 13.30 267.81 13.38 267.81 13.54L267.81 13.82L268.98 13.82L269.70 13.82L270.89 13.82L270.89 13.54C270.89 13.38 270.79 13.30 270.61 13.29L270.47 13.29C270.40 13.29 270.30 13.27 270.16 13.27C270.02 13.27 269.86 13.26 269.70 13.26L269.70 4.52L272.58 4.52C272.62 5.24 272.64 5.60 272.64 5.63C272.65 5.85 272.75 5.96 272.94 5.96L273.28 5.96L273.28 3.92ZM284.20 4.44C284.38 4.42 284.47 4.34 284.47 4.19L284.47 3.91L283.29 3.91L282.58 3.91L281.39 3.91L281.39 4.19C281.39 4.34 281.48 4.42 281.67 4.44L281.81 4.44C281.88 4.44 281.97 4.45 282.11 4.45C282.25 4.45 282.41 4.47 282.58 4.47L282.58 13.26C282.41 13.26 282.25 13.27 282.11 13.27C281.97 13.27 281.88 13.29 281.81 13.29L281.67 13.29C281.48 13.30 281.39 13.38 281.39 13.54L281.39 13.82L282.58 13.82L283.29 13.82L284.47 13.82L284.47 13.54C284.47 13.38 284.38 13.30 284.20 13.29L284.06 13.29C283.99 13.29 283.89 13.27 283.75 13.27C283.61 13.27 283.46 13.26 283.29 13.26L283.29 4.47C283.46 4.47 283.61 4.45 283.75 4.45C283.89 4.45 283.99 4.44 284.06 4.44ZM300.54 12.21C300.51 12.18 300.47 12.15 300.43 12.15C300.40 12.15 300.38 12.15 300.36 12.17C300.34 12.18 300.31 12.21 300.29 12.22C300.09 12.40 299.88 12.56 299.68 12.70C299.49 12.84 299.28 12.94 299.04 13.03C298.80 13.13 298.55 13.20 298.27 13.24C297.99 13.29 297.68 13.31 297.33 13.31C296.77 13.31 296.23 13.22 295.75 13.01C295.26 12.81 294.85 12.52 294.50 12.14C294.15 11.76 293.86 11.28 293.66 10.74C293.47 10.19 293.37 9.56 293.37 8.86C293.37 8.18 293.47 7.56 293.66 7.01C293.87 6.47 294.15 6.01 294.52 5.61C294.88 5.24 295.32 4.94 295.82 4.73C296.32 4.52 296.87 4.42 297.47 4.42C298.37 4.42 299.19 4.56 299.92 4.89C299.96 5.78 300.01 6.30 300.01 6.41C300.02 6.64 300.10 6.75 300.30 6.75L300.64 6.75L300.64 4.51C299.46 4.03 298.40 3.81 297.47 3.81C296.76 3.81 296.11 3.92 295.51 4.17C294.92 4.42 294.39 4.76 293.97 5.21C293.54 5.66 293.22 6.19 292.98 6.80C292.74 7.42 292.63 8.11 292.63 8.86C292.63 9.63 292.75 10.32 292.98 10.95C293.20 11.58 293.52 12.10 293.93 12.54C294.34 12.99 294.83 13.33 295.40 13.57C295.97 13.80 296.59 13.93 297.28 13.93C297.68 13.93 298.06 13.90 298.41 13.83C298.75 13.76 299.07 13.66 299.36 13.54C299.64 13.41 299.91 13.26 300.15 13.09C300.38 12.91 300.61 12.73 300.82 12.50ZM318.12 13.22L317.66 13.17L313.88 3.91L313.17 3.91L309.37 13.17L308.92 13.22C308.74 13.23 308.66 13.33 308.66 13.50L308.66 13.82L309.11 13.82L309.40 13.82L309.65 13.82L309.75 13.82L311.07 13.82L311.07 13.50C311.07 13.31 310.95 13.23 310.74 13.22C310.73 13.22 310.70 13.20 310.66 13.20C310.62 13.20 310.56 13.19 310.46 13.19C310.37 13.19 310.24 13.19 310.10 13.17L311.08 10.75L311.15 10.57L315.88 10.57L315.95 10.75L316.93 13.17C316.79 13.19 316.68 13.19 316.58 13.19C316.48 13.19 316.41 13.20 316.37 13.20C316.33 13.20 316.30 13.22 316.29 13.22C316.08 13.23 315.97 13.31 315.97 13.50L315.97 13.82L317.28 13.82L317.38 13.82L317.65 13.82L317.93 13.82L318.39 13.82L318.39 13.50C318.39 13.33 318.30 13.23 318.12 13.22ZM313.32 5.22C313.35 5.14 313.39 5.04 313.42 4.94C313.45 4.84 313.49 4.75 313.52 4.63C313.54 4.75 313.59 4.84 313.61 4.94C313.64 5.04 313.68 5.12 313.71 5.21L315.67 10.04L311.37 10.04ZM332.99 11.97C332.79 11.97 332.71 12.08 332.70 12.31C332.70 12.32 332.70 12.38 332.68 12.43C332.67 12.49 332.67 12.59 332.65 12.71C332.64 12.84 332.63 13.01 332.61 13.20L328.52 13.20L328.52 4.47C328.69 4.47 328.83 4.45 328.97 4.45C329.11 4.45 329.22 4.44 329.29 4.44L329.42 4.44C329.60 4.42 329.70 4.34 329.70 4.19L329.70 3.92L328.52 3.92L327.81 3.92L326.62 3.92L326.62 4.19C326.62 4.34 326.72 4.42 326.90 4.44L327.04 4.44C327.11 4.44 327.21 4.45 327.35 4.45C327.49 4.45 327.64 4.47 327.81 4.47L327.81 13.26C327.64 13.26 327.49 13.27 327.35 13.27C327.21 13.27 327.11 13.29 327.04 13.29L326.90 13.29C326.72 13.30 326.62 13.38 326.62 13.54L326.62 13.82L327.81 13.82L333.09 13.82L333.21 13.82L333.34 13.82L333.34 13.55L333.34 12.99L333.34 11.97L333.06 11.97ZM361.87 4.44C362.05 4.42 362.15 4.34 362.15 4.19L362.15 3.92L360.98 3.92L360.25 3.92L359.07 3.92L359.07 4.19C359.07 4.34 359.17 4.42 359.35 4.44L359.48 4.44C359.55 4.44 359.66 4.45 359.80 4.45C359.94 4.45 360.08 4.47 360.25 4.47L360.25 8.53L354.05 8.53L354.05 4.47C354.21 4.47 354.37 4.45 354.51 4.45C354.65 4.45 354.75 4.44 354.82 4.44L354.96 4.44C355.14 4.42 355.22 4.34 355.22 4.19L355.22 3.92L354.05 3.92L353.33 3.92L352.14 3.92L352.14 4.19C352.14 4.34 352.24 4.42 352.42 4.44L352.56 4.44C352.63 4.44 352.73 4.45 352.87 4.45C353.01 4.45 353.16 4.47 353.33 4.47L353.33 13.26C353.16 13.26 353.01 13.27 352.87 13.27C352.73 13.27 352.63 13.29 352.56 13.29L352.42 13.29C352.24 13.30 352.14 13.38 352.14 13.54L352.14 13.82L353.33 13.82L354.05 13.82L355.22 13.82L355.22 13.54C355.22 13.38 355.14 13.30 354.96 13.29L354.82 13.29C354.75 13.29 354.65 13.27 354.51 13.27C354.37 13.27 354.21 13.26 354.05 13.26L354.05 9.07L360.25 9.07L360.25 13.26C360.08 13.26 359.94 13.27 359.80 13.27C359.66 13.27 359.55 13.29 359.48 13.29L359.35 13.29C359.17 13.30 359.07 13.38 359.07 13.54L359.07 13.82L360.25 13.82L360.98 13.82L362.15 13.82L362.15 13.54C362.15 13.38 362.05 13.30 361.87 13.29L361.75 13.29C361.68 13.29 361.56 13.27 361.42 13.27C361.28 13.27 361.14 13.26 360.98 13.26L360.98 4.47C361.14 4.47 361.28 4.45 361.42 4.45C361.56 4.45 361.68 4.44 361.75 4.44ZM373.31 4.44C373.49 4.42 373.58 4.34 373.58 4.19L373.58 3.91L372.40 3.91L371.69 3.91L370.50 3.91L370.50 4.19C370.50 4.34 370.59 4.42 370.78 4.44L370.92 4.44C370.99 4.44 371.08 4.45 371.22 4.45C371.36 4.45 371.52 4.47 371.69 4.47L371.69 13.26C371.52 13.26 371.36 13.27 371.22 13.27C371.08 13.27 370.99 13.29 370.92 13.29L370.78 13.29C370.59 13.30 370.50 13.38 370.50 13.54L370.50 13.82L371.69 13.82L372.40 13.82L373.58 13.82L373.58 13.54C373.58 13.38 373.49 13.30 373.31 13.29L373.17 13.29C373.10 13.29 373.00 13.27 372.86 13.27C372.72 13.27 372.57 13.26 372.40 13.26L372.40 4.47C372.57 4.47 372.72 4.45 372.86 4.45C373.00 4.45 373.10 4.44 373.17 4.44ZM389.44 3.92L389.24 3.92L381.95 3.92L381.74 3.92L381.64 3.92L381.64 5.96L381.99 5.96C382.19 5.96 382.27 5.85 382.28 5.63C382.28 5.53 382.31 5.17 382.34 4.52L385.24 4.52L385.24 13.26C385.07 13.26 384.93 13.27 384.79 13.27C384.65 13.27 384.54 13.29 384.47 13.29L384.34 13.29C384.16 13.30 384.06 13.38 384.06 13.54L384.06 13.82L385.24 13.82L385.95 13.82L387.14 13.82L387.14 13.54C387.14 13.38 387.04 13.30 386.86 13.29L386.72 13.29C386.65 13.29 386.55 13.27 386.41 13.27C386.27 13.27 386.12 13.26 385.95 13.26L385.95 4.52L388.84 4.52C388.88 5.24 388.89 5.60 388.89 5.63C388.91 5.85 389.00 5.96 389.20 5.96L389.54 5.96L389.54 3.92ZM403.37 9.91C403.23 9.65 403.03 9.39 402.79 9.21C402.56 9.03 402.30 8.88 402.01 8.75C401.72 8.62 401.39 8.51 401.09 8.41C400.78 8.32 400.47 8.20 400.18 8.11C399.88 7.99 399.62 7.87 399.38 7.71C399.14 7.56 398.96 7.38 398.82 7.15C398.68 6.93 398.59 6.65 398.59 6.31C398.59 6.06 398.65 5.82 398.75 5.59C398.85 5.35 398.99 5.15 399.17 4.97C399.35 4.79 399.57 4.65 399.85 4.55C400.13 4.45 400.44 4.40 400.81 4.40C401.48 4.40 402.09 4.51 402.65 4.75C402.70 5.54 402.72 5.99 402.72 6.06C402.74 6.29 402.82 6.41 403.02 6.41L403.35 6.41L403.35 4.38C402.47 4.00 401.63 3.81 400.81 3.81C400.34 3.81 399.94 3.88 399.57 4.02C399.21 4.16 398.92 4.34 398.68 4.58C398.44 4.82 398.24 5.08 398.12 5.39C397.99 5.70 397.94 6.02 397.94 6.36C397.94 6.78 398.01 7.14 398.15 7.42C398.29 7.70 398.48 7.92 398.72 8.12C398.96 8.32 399.21 8.46 399.50 8.58C399.80 8.71 400.12 8.82 400.43 8.92C400.74 9.02 401.03 9.11 401.34 9.21C401.63 9.31 401.90 9.45 402.14 9.60C402.37 9.76 402.56 9.94 402.70 10.16C402.84 10.39 402.91 10.68 402.91 11.03C402.91 11.35 402.85 11.66 402.74 11.94C402.63 12.22 402.47 12.46 402.26 12.67C402.05 12.88 401.79 13.05 401.48 13.16C401.17 13.29 400.82 13.33 400.43 13.33C399.64 13.33 398.99 13.20 398.45 12.95C398.44 12.75 398.44 12.54 398.43 12.32C398.41 12.10 398.41 11.91 398.40 11.76C398.38 11.61 398.38 11.52 398.38 11.51C398.37 11.28 398.27 11.17 398.08 11.17L397.74 11.17L397.74 13.02L397.74 13.20L397.74 13.38C398.59 13.75 399.48 13.93 400.40 13.93C400.90 13.93 401.35 13.85 401.74 13.69C402.14 13.54 402.47 13.31 402.74 13.05C403.00 12.78 403.23 12.46 403.37 12.10C403.51 11.73 403.58 11.34 403.58 10.92C403.58 10.51 403.51 10.18 403.37 9.91ZM412.12 13.29C412.12 13.47 412.17 13.61 412.30 13.73C412.43 13.86 412.58 13.93 412.76 13.93C412.85 13.93 412.93 13.90 413.01 13.87C413.10 13.85 413.15 13.79 413.21 13.73C413.27 13.68 413.32 13.62 413.35 13.54C413.38 13.45 413.41 13.38 413.41 13.29C413.41 13.20 413.38 13.12 413.35 13.03C413.32 12.95 413.27 12.88 413.21 12.82C413.15 12.77 413.10 12.71 413.01 12.68C412.93 12.66 412.85 12.63 412.76 12.63C412.66 12.63 412.58 12.66 412.50 12.68C412.41 12.71 412.36 12.77 412.30 12.82C412.24 12.88 412.19 12.95 412.16 13.03C412.13 13.12 412.12 13.20 412.12 13.29Z"></path></g></svg>