<svg data-v-423bf9ae="" xmlns="http://www.w3.org/2000/svg" viewBox="0 0 677 90" class="iconLeftSlogan"><!----><!----><!----><g data-v-423bf9ae="" id="03f01d44-23b9-40d6-8f77-367fbcb27fe0" fill="black" transform="matrix(5.395682583276895,0,0,5.395682583276895,108.43524462847671,2.589928696561703)"><path d="M0.29 10.50L1.96 10.50L3.33 3.25C3.40 2.91 3.42 2.66 3.42 2.66L6.19 10.50L8.43 10.50L10.30 0.88L8.64 0.88L7.24 8.19C7.18 8.46 7.14 8.76 7.14 8.76L4.35 0.88L2.16 0.88ZM13.62 10.64C15.47 10.64 16.35 9.93 16.97 8.71L15.39 8.20C15.12 8.88 14.62 9.39 13.79 9.39C12.87 9.39 12.29 8.65 12.45 7.29L12.46 7.14L17.46 7.14C17.56 6.66 17.63 6.08 17.63 5.66C17.63 3.98 16.67 2.86 14.59 2.86C12.08 2.86 10.85 4.41 10.60 6.78C10.35 9.09 11.14 10.64 13.62 10.64ZM14.55 4.00C15.20 4.00 15.97 4.33 15.95 5.53C15.95 5.63 15.95 5.77 15.93 5.91L12.61 5.91C12.89 4.45 13.69 4.00 14.55 4.00ZM23.80 4.47L24.11 2.87C23.95 2.86 23.63 2.86 23.62 2.86C22.58 2.86 21.71 3.56 21.25 4.49C21.35 3.96 21.46 3.28 21.50 3.00L19.75 3.00C19.71 3.40 19.63 3.95 19.50 4.59L18.34 10.50L20.16 10.50L20.87 6.85C21.17 5.28 21.94 4.42 23.16 4.42C23.48 4.42 23.62 4.44 23.80 4.47ZM26.42 10.64C27.75 10.64 28.46 10.04 28.94 9.28C28.88 9.67 28.84 10.09 28.81 10.50L30.63 10.50C30.67 10.07 30.76 9.38 30.84 8.90L32.62-0.48L30.83-0.48L30.14 3.07C30.06 3.47 30.00 3.84 29.95 4.17C29.71 3.49 29.11 2.83 27.73 2.83C26.05 2.83 24.67 3.92 24.22 6.62C23.90 8.53 24.16 10.64 26.42 10.64ZM27.19 9.37C25.82 9.37 25.91 7.71 26.14 6.54C26.50 4.63 27.23 4.07 28.15 4.07C29.61 4.07 29.69 5.36 29.43 6.83C29.09 8.71 28.27 9.37 27.19 9.37ZM38.43 8.79C38.68 7.18 37.67 6.71 36.12 6.03C34.89 5.50 34.83 5.03 34.89 4.70C34.96 4.30 35.34 4.07 35.88 4.07C36.41 4.07 37.09 4.23 37.27 4.98L38.82 4.69C38.57 3.57 37.51 2.86 35.90 2.86C34.23 2.86 33.33 3.67 33.21 4.66C33.07 5.74 33.49 6.64 35.15 7.36C36.32 7.87 36.78 8.09 36.74 8.64C36.69 9.16 36.34 9.45 35.43 9.45C34.36 9.45 33.99 8.85 33.84 8.27L32.19 8.57C32.35 9.65 33.19 10.64 35.42 10.64C37.06 10.64 38.23 10.02 38.43 8.79ZM51.18 10.58C51.58 10.58 51.84 10.53 52.14 10.43L52.40 9.04C52.19 9.11 51.93 9.16 51.65 9.16C51.06 9.16 50.71 9.11 50.29 8.81C51.31 7.83 51.91 6.75 52.29 5.87L51.02 5.31C50.65 6.08 50.09 7.04 49.38 7.78C48.93 7.13 48.50 6.26 48.23 5.59C50.53 4.68 51.44 3.96 51.44 2.66C51.44 1.47 50.50 0.81 49.01 0.81C47.24 0.81 46.17 1.85 46.17 3.46C46.17 3.96 46.30 4.54 46.42 4.97C44.31 5.84 43.54 6.75 43.54 8.26C43.54 9.74 44.65 10.64 46.38 10.64C47.73 10.64 48.50 10.25 49.06 9.83C49.77 10.43 50.53 10.58 51.18 10.58ZM46.65 9.25C45.88 9.25 45.28 8.83 45.28 8.04C45.28 7.18 45.78 6.64 46.83 6.15C47.22 7.14 47.68 8.09 48.16 8.79C47.75 9.04 47.26 9.25 46.65 9.25ZM47.70 3.40C47.70 2.49 48.27 1.99 49 1.99C49.56 1.99 49.91 2.18 49.91 2.77C49.91 3.47 49.45 3.81 47.85 4.42C47.77 4.09 47.70 3.70 47.70 3.40ZM57.50 10.50L59.16 10.50L60.54 3.25C60.61 2.91 60.62 2.66 60.62 2.66L63.39 10.50L65.63 10.50L67.51 0.88L65.84 0.88L64.44 8.19C64.39 8.46 64.34 8.76 64.34 8.76L61.56 0.88L59.36 0.88ZM67.55 10.50L69.37 10.50L70.84 3.00L69.02 3.00ZM69.19 1.85L71.06 1.85L71.41 0.14L69.54 0.14ZM71.72 4.19L72.67 4.19L71.76 8.79C71.60 9.59 71.78 10.64 73.08 10.64C73.68 10.64 74.16 10.61 74.59 10.60L74.86 9.27L74.02 9.27C73.57 9.27 73.44 9.04 73.54 8.58L74.45 4.19L75.88 4.19L76.16 3.00L74.70 3.00L75.19 0.64L73.50 0.64L72.97 3.00L71.99 3.00ZM81.68 4.47L81.98 2.87C81.83 2.86 81.51 2.86 81.49 2.86C80.46 2.86 79.59 3.56 79.13 4.49C79.23 3.96 79.34 3.28 79.38 3.00L77.63 3.00C77.59 3.40 77.50 3.95 77.38 4.59L76.22 10.50L78.04 10.50L78.75 6.85C79.04 5.28 79.81 4.42 81.03 4.42C81.35 4.42 81.49 4.44 81.68 4.47ZM87.60 7.17C87.14 9.13 86.31 9.38 85.44 9.38C83.96 9.38 83.76 7.74 84.07 6.30C84.48 4.38 85.43 4.10 86.18 4.10C87.67 4.10 87.93 5.74 87.60 7.17ZM89.47 7.32C90.02 4.90 89.15 2.84 86.34 2.84C83.93 2.84 82.57 4.12 82.15 6.30C81.69 8.68 82.74 10.64 85.30 10.64C87.56 10.64 88.98 9.48 89.47 7.32ZM93.58 3.00L91.76 3.00L90.87 7.59C90.55 9.32 90.89 10.64 92.88 10.64C94.11 10.64 94.95 10.05 95.45 9.16C95.38 9.60 95.33 10.02 95.28 10.50L97.05 10.50C97.10 10.00 97.17 9.37 97.27 8.89L98.45 3.00L96.61 3.00L95.79 7.18C95.54 8.43 94.65 9.27 93.65 9.27C92.32 9.27 92.62 7.97 92.78 7.17ZM104.97 8.79C105.22 7.18 104.22 6.71 102.66 6.03C101.43 5.50 101.37 5.03 101.43 4.70C101.50 4.30 101.88 4.07 102.42 4.07C102.96 4.07 103.63 4.23 103.81 4.98L105.36 4.69C105.11 3.57 104.05 2.86 102.44 2.86C100.77 2.86 99.88 3.67 99.75 4.66C99.61 5.74 100.03 6.64 101.70 7.36C102.86 7.87 103.32 8.09 103.28 8.64C103.24 9.16 102.89 9.45 101.98 9.45C100.90 9.45 100.53 8.85 100.38 8.27L98.73 8.57C98.90 9.65 99.74 10.64 101.96 10.64C103.60 10.64 104.78 10.02 104.97 8.79Z"></path></g><!----><g data-v-423bf9ae="" id="59918d8a-e57f-410d-8e32-2a975658e589" transform="matrix(1.5041615227268843,0,0,1.5041615227268843,-30.12507595323875,-30.12507595323875)" stroke="none" fill="black"><path d="M23.833 79.917h52.334a3.754 3.754 0 003.75-3.75V23.833a3.754 3.754 0 00-3.75-3.75H23.833a3.754 3.754 0 00-3.75 3.75v52.334a3.754 3.754 0 003.75 3.75zm-.75-56.084a.75.75 0 01.75-.75h52.334a.75.75 0 01.75.75v52.334a.75.75 0 01-.75.75H23.833a.75.75 0 01-.75-.75V23.833z"></path><path d="M30.208 64.526a4.121 4.121 0 008.243 0c0-1.746-1.089-3.23-2.621-3.83v-7.457c.386-.237.709-.56.946-.947h10.778c.237.386.56.71.946.947v7.457a4.115 4.115 0 001.5 7.951 4.115 4.115 0 001.5-7.951v-7.457c.386-.238.709-.56.946-.947h10.778a2.868 2.868 0 002.446 1.379 2.879 2.879 0 002.879-2.879c0-1.038-.555-1.94-1.379-2.446v-9.042a4.115 4.115 0 00-1.5-7.951 4.115 4.115 0 00-1.5 7.951v9.042c-.386.237-.709.56-.946.946H52.446a2.876 2.876 0 00-.946-.946v-9.042a4.115 4.115 0 00-1.5-7.951 4.115 4.115 0 00-1.5 7.951v9.042c-.386.237-.71.56-.946.946H36.776a2.875 2.875 0 00-.946-.946v-9.042a4.115 4.115 0 00-1.5-7.951 4.115 4.115 0 00-1.5 7.951v9.042c-.824.506-1.379 1.408-1.379 2.446s.555 1.94 1.379 2.447v7.457a4.115 4.115 0 00-2.622 3.83z"></path></g><!----><g data-v-423bf9ae="" id="ddeda697-c5b4-41c1-b878-3fc1835b4db4" fill="black" transform="matrix(1.088590568579396,0,0,1.088590568579396,109.17267458362679,57.01726344532337)"><path d="M0.76 8.02L0.76 8.02Q0.76 6.86 1.23 5.83L1.23 5.83Q1.70 4.85 2.45 4.27L2.45 4.27Q3.19 3.69 4.09 3.37Q4.98 3.05 5.82 3.05L5.82 3.05Q6.69 3.05 7.36 3.16L7.36 3.16Q7.99 3.26 8.29 3.37L8.29 3.37Q8.59 3.48 8.63 3.48L8.63 3.48Q8.80 3.48 8.82 3.41L8.82 3.41Q8.85 3.33 8.85 3.09L8.85 3.09L8.85 2.97L9.38 2.97Q9.42 4.30 9.55 5.64L9.55 5.64L9.04 5.65Q9.02 5.40 9.00 5.26L9.00 5.26Q9.00 5.20 9.00 5.13Q8.99 5.07 8.98 5.02Q8.98 4.98 8.98 4.95L8.98 4.95Q8.95 4.84 8.95 4.74L8.95 4.74Q8.95 4.68 8.91 4.59L8.91 4.59Q8.91 4.57 8.88 4.55Q8.85 4.52 8.85 4.50L8.85 4.50Q8.82 4.44 8.75 4.41L8.75 4.41Q8.71 4.38 8.68 4.37Q8.65 4.36 8.63 4.35L8.63 4.35Q8.61 4.35 8.59 4.33Q8.57 4.31 8.52 4.29Q8.48 4.27 8.44 4.25L8.44 4.25Q8.22 4.16 8.19 4.14L8.19 4.14Q7.84 3.96 7.20 3.83L7.20 3.83Q6.53 3.71 5.87 3.71L5.87 3.71Q4.14 3.71 3.05 4.84L3.05 4.84Q1.94 5.99 1.95 7.62L1.95 7.62Q1.95 9.35 3.17 10.69L3.17 10.69Q4.37 12.02 6.19 12.02L6.19 12.02Q7.19 12.02 8.13 11.49L8.13 11.49Q9.08 10.94 9.11 10.58L9.11 10.58L9.15 9.41L9.65 9.41L9.56 11.45Q9.50 11.49 9.37 11.57L9.37 11.57Q9.31 11.60 8.85 11.85L8.85 11.85Q8.47 12.05 8.03 12.23L8.03 12.23Q7.66 12.39 7.01 12.51L7.01 12.51Q6.41 12.63 5.84 12.64L5.84 12.64Q3.46 12.64 2.10 11.39L2.10 11.39Q0.76 10.14 0.76 8.02ZM18.17 3.64L17.68 3.64L17.69 3.08L21.28 3.08L21.28 3.64L20.64 3.64Q20.27 3.64 20.16 3.72Q20.04 3.80 20.04 4.16L20.04 4.16L20.04 11.22Q20.04 11.57 20.13 11.67Q20.21 11.77 20.51 11.77L20.51 11.77Q23.38 11.74 24.04 11.63L24.04 11.63Q24.25 11.61 24.33 11.39Q24.41 11.17 24.61 10.05L24.61 10.05L25.10 10.08L24.64 12.41L17.88 12.41L17.86 11.87L18.25 11.87Q18.76 11.87 18.83 11.80L18.83 11.80Q18.91 11.72 18.92 11.33L18.92 11.33L18.92 4.09Q18.92 3.80 18.76 3.72L18.76 3.72Q18.61 3.64 18.17 3.64L18.17 3.64ZM33.22 3.64L32.83 3.64L32.83 3.08L36.20 3.08L36.21 3.64L35.68 3.64Q35.25 3.64 35.09 3.73L35.09 3.73Q34.92 3.83 34.92 4.16L34.92 4.16L34.92 9.33Q34.92 9.63 34.95 9.78L34.95 9.78Q34.99 10.01 35.16 10.41L35.16 10.41Q35.33 10.80 35.62 11.09L35.62 11.09Q35.93 11.40 36.49 11.63L36.49 11.63Q37.06 11.85 37.84 11.85L37.84 11.85Q38.70 11.85 39.25 11.67L39.25 11.67Q39.81 11.48 40.11 11.22Q40.42 10.96 40.56 10.49L40.56 10.49Q40.74 9.95 40.74 9.66L40.74 9.66Q40.77 9.18 40.78 8.67L40.78 8.67L40.78 4.14Q40.78 3.81 40.63 3.72L40.63 3.72Q40.48 3.64 40.00 3.64L40.00 3.64L39.51 3.64L39.54 3.08L42.17 3.08L42.17 3.64L41.98 3.64Q41.66 3.64 41.55 3.75Q41.43 3.86 41.43 4.25L41.43 4.25L41.43 9.22Q41.43 12.67 37.84 12.67L37.84 12.67Q35.68 12.67 34.73 11.76L34.73 11.76Q33.79 10.86 33.79 9.41L33.79 9.41L33.79 4.14Q33.79 3.81 33.69 3.72L33.69 3.72Q33.58 3.64 33.22 3.64L33.22 3.64ZM50.19 5.35L49.69 5.33Q49.81 4.17 49.90 3.08L49.90 3.08L57.98 3.08Q57.89 4.13 57.87 4.53L57.87 4.53Q57.83 5.26 57.80 5.32L57.80 5.32L57.31 5.30Q57.39 4.34 57.39 4.16L57.39 4.16Q57.39 3.88 57.24 3.79L57.24 3.79Q57.07 3.69 56.67 3.69L56.67 3.69L55.06 3.69Q54.56 3.69 54.43 3.79L54.43 3.79Q54.34 3.87 54.33 4.36L54.33 4.36L54.33 11.22Q54.33 11.66 54.48 11.76L54.48 11.76Q54.63 11.87 55.15 11.87L55.15 11.87L55.71 11.87L55.72 12.41L52.03 12.40L52.03 11.87L52.25 11.87Q52.92 11.87 53.06 11.79Q53.20 11.70 53.20 11.28L53.20 11.28L53.20 4.48Q53.20 3.92 53.10 3.80Q53.01 3.69 52.58 3.69L52.58 3.69L51.11 3.69Q50.93 3.69 50.86 3.71Q50.79 3.72 50.68 3.72L50.68 3.72Q50.65 3.72 50.54 3.79L50.54 3.79Q50.46 3.84 50.43 3.86Q50.40 3.88 50.36 3.99L50.36 3.99Q50.33 4.05 50.31 4.14L50.31 4.14Q50.28 4.21 50.26 4.36L50.26 4.36Q50.23 4.59 50.23 4.61L50.23 4.61Q50.23 4.80 50.22 4.95L50.22 4.95Q50.22 5.02 50.21 5.15Q50.20 5.29 50.19 5.35L50.19 5.35ZM66.10 8.02L66.10 8.02Q66.10 6.86 66.57 5.83L66.57 5.83Q67.03 4.85 67.79 4.27L67.79 4.27Q68.53 3.69 69.43 3.37Q70.32 3.05 71.16 3.05L71.16 3.05Q72.03 3.05 72.70 3.16L72.70 3.16Q73.33 3.26 73.62 3.37L73.62 3.37Q73.93 3.48 73.96 3.48L73.96 3.48Q74.14 3.48 74.16 3.41L74.16 3.41Q74.18 3.33 74.18 3.09L74.18 3.09L74.18 2.97L74.72 2.97Q74.76 4.30 74.89 5.64L74.89 5.64L74.38 5.65Q74.35 5.40 74.34 5.26L74.34 5.26Q74.34 5.20 74.33 5.13Q74.33 5.07 74.32 5.02Q74.31 4.98 74.31 4.95L74.31 4.95Q74.29 4.84 74.29 4.74L74.29 4.74Q74.29 4.68 74.25 4.59L74.25 4.59Q74.25 4.57 74.21 4.55Q74.18 4.52 74.18 4.50L74.18 4.50Q74.16 4.44 74.09 4.41L74.09 4.41Q74.05 4.38 74.02 4.37Q73.99 4.36 73.96 4.35L73.96 4.35Q73.95 4.35 73.93 4.33Q73.90 4.31 73.86 4.29Q73.82 4.27 73.78 4.25L73.78 4.25Q73.55 4.16 73.53 4.14L73.53 4.14Q73.18 3.96 72.54 3.83L72.54 3.83Q71.87 3.71 71.20 3.71L71.20 3.71Q69.48 3.71 68.39 4.84L68.39 4.84Q67.28 5.99 67.29 7.62L67.29 7.62Q67.29 9.35 68.50 10.69L68.50 10.69Q69.71 12.02 71.52 12.02L71.52 12.02Q72.53 12.02 73.47 11.49L73.47 11.49Q74.42 10.94 74.45 10.58L74.45 10.58L74.49 9.41L74.98 9.41L74.90 11.45Q74.83 11.49 74.70 11.57L74.70 11.57Q74.65 11.60 74.18 11.85L74.18 11.85Q73.81 12.05 73.36 12.23L73.36 12.23Q73.00 12.39 72.35 12.51L72.35 12.51Q71.74 12.63 71.18 12.64L71.18 12.64Q68.80 12.64 67.44 11.39L67.44 11.39Q66.10 10.14 66.10 8.02ZM83.38 3.64L83.02 3.64L83.02 3.08L86.50 3.08L86.50 3.64L86.14 3.64Q85.63 3.64 85.48 3.75L85.48 3.75Q85.35 3.84 85.34 4.25L85.34 4.25L85.34 6.91L89.89 6.91L89.89 4.14Q89.89 3.77 89.80 3.71L89.80 3.71Q89.69 3.64 89.16 3.64L89.16 3.64L88.57 3.64L88.56 3.08L92.11 3.08L92.11 3.64L91.72 3.64Q91.25 3.64 91.14 3.74Q91.03 3.83 91.03 4.22L91.03 4.22L91.03 11.29Q91.03 11.67 91.16 11.77L91.16 11.77Q91.32 11.87 91.87 11.87L91.87 11.87L92.34 11.87L92.33 12.41L88.84 12.41L88.83 11.87L89.24 11.87Q89.70 11.87 89.80 11.77Q89.89 11.67 89.89 11.25L89.89 11.25L89.89 7.58L85.34 7.58L85.34 11.25Q85.34 11.67 85.49 11.77Q85.65 11.87 86.35 11.87L86.35 11.87L86.75 11.87L86.73 12.41L83.15 12.41L83.13 11.87L83.49 11.87Q84.04 11.87 84.11 11.80L84.11 11.80Q84.21 11.70 84.21 11.25L84.21 11.25L84.21 4.09Q84.21 3.76 84.07 3.71L84.07 3.71Q83.90 3.64 83.38 3.64L83.38 3.64ZM110.24 3.64L109.65 3.64L109.65 3.08L113.15 3.08L113.15 3.64L112.70 3.64Q112.30 3.64 112.20 3.73L112.20 3.73Q112.09 3.84 112.09 4.28L112.09 4.28L112.09 7.50L116.18 4.18Q116.53 3.89 116.53 3.77L116.53 3.77Q116.53 3.64 115.88 3.64L115.88 3.64L115.34 3.64L115.31 3.08L118.67 3.08L118.67 3.64L118.30 3.64Q117.87 3.64 117.66 3.76L117.66 3.76Q117.49 3.86 116.61 4.55L116.61 4.55L113.44 7.08L117.67 11.49Q118.04 11.87 118.28 11.87L118.28 11.87L119.09 11.87L119.06 12.41L116.86 12.41L112.60 7.74L112.09 8.16L112.09 11.22Q112.09 11.70 112.26 11.79Q112.42 11.87 113.19 11.87L113.19 11.87L113.50 11.87L113.50 12.41L109.92 12.41L109.90 11.87L110.28 11.87Q110.78 11.87 110.87 11.79Q110.95 11.70 110.95 11.25L110.95 11.25L110.95 4.14Q110.95 3.77 110.85 3.71L110.85 3.71Q110.74 3.64 110.24 3.64L110.24 3.64ZM127.41 3.64L126.82 3.64L126.83 3.08L130.35 3.08L130.35 3.64L130.12 3.64Q129.57 3.64 129.40 3.73L129.40 3.73Q129.26 3.81 129.26 4.28L129.26 4.28L129.26 11.22Q129.26 11.68 129.37 11.77Q129.48 11.87 130.01 11.87L130.01 11.87L130.56 11.87L130.57 12.41L126.99 12.41L126.98 11.87L127.34 11.87Q127.90 11.87 128.01 11.77Q128.13 11.67 128.13 11.25L128.13 11.25L128.13 4.14Q128.13 3.77 128.02 3.71L128.02 3.71Q127.91 3.64 127.41 3.64L127.41 3.64ZM138.69 8.02L138.69 8.02Q138.69 6.86 139.17 5.83L139.17 5.83Q139.63 4.85 140.38 4.27L140.38 4.27Q141.13 3.69 142.02 3.37Q142.92 3.05 143.76 3.05L143.76 3.05Q144.63 3.05 145.30 3.16L145.30 3.16Q145.93 3.26 146.22 3.37L146.22 3.37Q146.53 3.48 146.56 3.48L146.56 3.48Q146.73 3.48 146.75 3.41L146.75 3.41Q146.78 3.33 146.78 3.09L146.78 3.09L146.78 2.97L147.31 2.97Q147.36 4.30 147.49 5.64L147.49 5.64L146.98 5.65Q146.95 5.40 146.94 5.26L146.94 5.26Q146.94 5.20 146.93 5.13Q146.92 5.07 146.92 5.02Q146.91 4.98 146.91 4.95L146.91 4.95Q146.88 4.84 146.88 4.74L146.88 4.74Q146.88 4.68 146.84 4.59L146.84 4.59Q146.84 4.57 146.81 4.55Q146.78 4.52 146.78 4.50L146.78 4.50Q146.75 4.44 146.69 4.41L146.69 4.41Q146.64 4.38 146.62 4.37Q146.59 4.36 146.56 4.35L146.56 4.35Q146.55 4.35 146.52 4.33Q146.50 4.31 146.46 4.29Q146.42 4.27 146.38 4.25L146.38 4.25Q146.15 4.16 146.13 4.14L146.13 4.14Q145.78 3.96 145.13 3.83L145.13 3.83Q144.46 3.71 143.80 3.71L143.80 3.71Q142.08 3.71 140.98 4.84L140.98 4.84Q139.88 5.99 139.88 7.62L139.88 7.62Q139.88 9.35 141.10 10.69L141.10 10.69Q142.30 12.02 144.12 12.02L144.12 12.02Q145.13 12.02 146.07 11.49L146.07 11.49Q147.02 10.94 147.05 10.58L147.05 10.58L147.09 9.41L147.58 9.41L147.50 11.45Q147.43 11.49 147.30 11.57L147.30 11.57Q147.25 11.60 146.78 11.85L146.78 11.85Q146.41 12.05 145.96 12.23L145.96 12.23Q145.60 12.39 144.95 12.51L144.95 12.51Q144.34 12.63 143.77 12.64L143.77 12.64Q141.39 12.64 140.03 11.39L140.03 11.39Q138.69 10.14 138.69 8.02ZM156.20 3.64L155.61 3.64L155.61 3.08L159.11 3.08L159.11 3.64L158.67 3.64Q158.27 3.64 158.16 3.73L158.16 3.73Q158.05 3.84 158.05 4.28L158.05 4.28L158.05 7.50L162.14 4.18Q162.49 3.89 162.49 3.77L162.49 3.77Q162.49 3.64 161.85 3.64L161.85 3.64L161.30 3.64L161.27 3.08L164.63 3.08L164.63 3.64L164.27 3.64Q163.84 3.64 163.63 3.76L163.63 3.76Q163.45 3.86 162.57 4.55L162.57 4.55L159.41 7.08L163.64 11.49Q164.00 11.87 164.24 11.87L164.24 11.87L165.05 11.87L165.03 12.41L162.83 12.41L158.57 7.74L158.05 8.16L158.05 11.22Q158.05 11.70 158.22 11.79Q158.39 11.87 159.15 11.87L159.15 11.87L159.46 11.87L159.46 12.41L155.88 12.41L155.87 11.87L156.24 11.87Q156.75 11.87 156.83 11.79Q156.92 11.70 156.92 11.25L156.92 11.25L156.92 4.14Q156.92 3.77 156.82 3.71L156.82 3.71Q156.71 3.64 156.20 3.64L156.20 3.64ZM172.76 10.04L172.76 10.04L173.25 9.98L173.43 10.85Q173.54 11.33 173.61 11.41Q173.68 11.49 174.09 11.64L174.09 11.64Q174.93 11.95 175.83 11.95L175.83 11.95Q176.61 11.95 177.15 11.49L177.15 11.49Q177.69 11.04 177.69 10.26L177.69 10.26Q177.69 9.65 177.23 9.21L177.23 9.21Q176.75 8.76 175.90 8.30L175.90 8.30L175.32 7.98Q174.58 7.55 174.34 7.36L174.34 7.36Q173.98 7.08 173.67 6.59Q173.36 6.10 173.36 5.46L173.36 5.46Q173.36 4.39 174.20 3.68Q175.04 2.97 176.15 2.97L176.15 2.97Q176.43 2.97 176.78 3.04L176.78 3.04Q176.98 3.08 177.31 3.17L177.31 3.17L177.55 3.25Q177.65 3.25 177.69 3.16L177.69 3.16Q177.74 3.05 177.74 2.98L177.74 2.98L177.75 2.88L178.23 2.85L178.45 5.41L177.94 5.43L177.82 4.18Q177.07 3.62 175.91 3.62L175.91 3.62Q175.27 3.62 174.76 4.05L174.76 4.05Q174.28 4.47 174.28 5.12L174.28 5.12Q174.28 5.72 174.73 6.17L174.73 6.17Q175.16 6.60 176.03 7.08L176.03 7.08L176.80 7.50Q177.75 8.03 178.29 8.59Q178.82 9.15 178.82 9.92L178.82 9.92Q178.82 10.99 177.97 11.76L177.97 11.76Q177.10 12.54 175.64 12.54L175.64 12.54Q175.08 12.54 174.58 12.41Q174.08 12.29 174.02 12.29L174.02 12.29Q173.77 12.29 173.77 12.58L173.77 12.58L173.78 12.76L173.30 12.80Q173.24 12.41 172.76 10.04ZM196.81 9.26L196.81 9.26Q196.81 8.63 197.07 8.15Q197.32 7.66 197.68 7.42Q198.04 7.18 198.28 7.07L198.28 7.07Q198.50 6.97 198.65 6.92L198.65 6.92L198.66 6.92L198.38 6.62Q198.15 6.38 197.93 5.92L197.93 5.92Q197.70 5.44 197.70 5.05L197.70 5.05Q197.70 4.22 198.35 3.61Q199.01 2.99 200.09 2.99L200.09 2.99Q200.92 2.99 201.54 3.46Q202.17 3.92 202.17 4.55L202.17 4.55Q202.17 5.03 201.84 5.43L201.84 5.43Q201.50 5.83 200.98 5.83L200.98 5.83Q200.72 5.83 200.47 5.74L200.47 5.74Q200.20 5.64 200.20 5.50L200.20 5.50Q200.20 5.41 200.42 5.36L200.42 5.36Q200.63 5.30 200.89 5.12L200.89 5.12Q201.13 4.95 201.13 4.61L201.13 4.61Q201.13 4.15 200.76 3.83L200.76 3.83Q200.42 3.53 199.95 3.53L199.95 3.53Q199.52 3.53 199.14 3.83L199.14 3.83Q198.79 4.13 198.79 4.56L198.79 4.56Q198.79 5.17 199.31 5.79L199.31 5.79Q199.86 6.45 201.42 7.89L201.42 7.89L202.22 8.62Q202.58 8.97 202.88 9.19L202.88 9.19L203.32 9.56Q203.35 9.58 203.73 9.86L203.73 9.86Q203.96 10.04 204.00 10.08L204.00 10.08L204.37 10.37L204.43 10.30Q204.51 10.19 204.56 10.10L204.56 10.10Q204.57 10.06 204.63 9.96Q204.70 9.85 204.72 9.80L204.72 9.80Q204.78 9.69 204.89 9.41L204.89 9.41Q204.98 9.19 205.06 8.94L205.06 8.94Q205.11 8.77 205.17 8.38L205.17 8.38Q205.21 8.09 205.21 7.78L205.21 7.78Q205.21 7.22 205.12 6.82L205.12 6.82Q205.01 6.34 204.78 6.28L204.78 6.28Q204.52 6.21 203.29 6.20L203.29 6.20L203.27 5.65L207.01 5.65L207.02 6.20Q205.87 6.23 205.80 6.25L205.80 6.25Q205.72 6.30 205.72 6.36L205.72 6.36Q205.72 6.38 205.76 6.49Q205.80 6.60 205.84 6.91L205.84 6.91Q205.90 7.36 205.90 7.82L205.90 7.82Q205.90 8.45 205.65 9.17L205.65 9.17Q205.38 9.91 205.15 10.32L205.15 10.32L204.89 10.72L205.19 10.92L205.48 11.12Q205.67 11.24 205.75 11.28L205.75 11.28Q205.92 11.38 206.06 11.42Q206.19 11.46 206.36 11.50L206.36 11.50Q206.56 11.55 206.71 11.55L206.71 11.55Q207.01 11.55 207.29 11.46L207.29 11.46Q207.51 11.40 207.62 11.39L207.62 11.39Q207.76 11.39 207.76 11.55L207.76 11.55Q207.76 12.00 207.29 12.30L207.29 12.30Q206.79 12.63 206.10 12.63L206.10 12.63Q205.79 12.63 205.27 12.39L205.27 12.39Q204.78 12.16 204.42 11.91L204.42 11.91L204.08 11.67Q204.07 11.70 203.98 11.79L203.98 11.79Q203.94 11.83 203.65 12.02L203.65 12.02Q203.34 12.24 203.09 12.33L203.09 12.33Q202.67 12.50 202.25 12.58L202.25 12.58Q201.69 12.69 201.11 12.69L201.11 12.69Q199.36 12.69 198.09 11.80Q196.81 10.90 196.81 9.26ZM198.12 8.83L198.12 8.83Q198.12 9.67 198.71 10.37L198.71 10.37Q199.28 11.04 200.12 11.39L200.12 11.39Q200.97 11.74 201.76 11.74L201.76 11.74Q202.09 11.74 202.25 11.73L202.25 11.73Q202.43 11.72 202.64 11.66L202.64 11.66Q202.71 11.64 202.82 11.61Q202.93 11.57 202.96 11.56L202.96 11.56Q203.05 11.53 203.20 11.48L203.20 11.48Q203.27 11.45 203.38 11.39L203.38 11.39Q203.41 11.38 203.45 11.35Q203.49 11.32 203.51 11.32L203.51 11.32L203.55 11.29L202.34 10.41Q200.89 9.30 199.03 7.32L199.03 7.32Q198.67 7.40 198.40 7.82L198.40 7.82Q198.12 8.26 198.12 8.83ZM225.41 8.02L225.41 8.02Q225.41 6.86 225.88 5.83L225.88 5.83Q226.34 4.85 227.10 4.27L227.10 4.27Q227.84 3.69 228.74 3.37Q229.63 3.05 230.47 3.05L230.47 3.05Q231.34 3.05 232.01 3.16L232.01 3.16Q232.64 3.26 232.93 3.37L232.93 3.37Q233.24 3.48 233.28 3.48L233.28 3.48Q233.45 3.48 233.47 3.41L233.47 3.41Q233.50 3.33 233.50 3.09L233.50 3.09L233.50 2.97L234.03 2.97Q234.07 4.30 234.20 5.64L234.20 5.64L233.69 5.65Q233.67 5.40 233.65 5.26L233.65 5.26Q233.65 5.20 233.65 5.13Q233.64 5.07 233.63 5.02Q233.63 4.98 233.63 4.95L233.63 4.95Q233.60 4.84 233.60 4.74L233.60 4.74Q233.60 4.68 233.56 4.59L233.56 4.59Q233.56 4.57 233.53 4.55Q233.50 4.52 233.50 4.50L233.50 4.50Q233.47 4.44 233.40 4.41L233.40 4.41Q233.36 4.38 233.33 4.37Q233.30 4.36 233.28 4.35L233.28 4.35Q233.26 4.35 233.24 4.33Q233.21 4.31 233.17 4.29Q233.13 4.27 233.09 4.25L233.09 4.25Q232.87 4.16 232.84 4.14L232.84 4.14Q232.49 3.96 231.85 3.83L231.85 3.83Q231.18 3.71 230.51 3.71L230.51 3.71Q228.79 3.71 227.70 4.84L227.70 4.84Q226.59 5.99 226.60 7.62L226.60 7.62Q226.60 9.35 227.81 10.69L227.81 10.69Q229.02 12.02 230.84 12.02L230.84 12.02Q231.84 12.02 232.78 11.49L232.78 11.49Q233.73 10.94 233.76 10.58L233.76 10.58L233.80 9.41L234.29 9.41L234.21 11.45Q234.14 11.49 234.01 11.57L234.01 11.57Q233.96 11.60 233.50 11.85L233.50 11.85Q233.12 12.05 232.67 12.23L232.67 12.23Q232.31 12.39 231.66 12.51L231.66 12.51Q231.05 12.63 230.49 12.64L230.49 12.64Q228.11 12.64 226.75 11.39L226.75 11.39Q225.41 10.14 225.41 8.02ZM242.66 3.64L242.27 3.64L242.29 3.08L245.51 3.08Q246.64 3.08 247.24 3.21L247.24 3.21Q247.88 3.37 248.35 3.75L248.35 3.75Q249.35 4.57 249.35 5.71L249.35 5.71Q249.35 6.43 248.88 7.04L248.88 7.04Q248.39 7.66 247.36 7.92L247.36 7.92L250.04 11.49Q250.35 11.87 250.65 11.87L250.65 11.87L251.25 11.87L251.28 12.41L249.25 12.41L246.25 8.10L246.08 8.10Q246.04 8.10 245.98 8.11Q245.93 8.11 245.92 8.11L245.92 8.11Q245.03 8.11 244.64 8.03L244.64 8.03L244.64 11.46Q244.64 11.76 244.78 11.81L244.78 11.81Q244.90 11.87 245.61 11.87L245.61 11.87L246.32 11.87L246.29 12.41L242.57 12.41L242.57 11.87L242.89 11.87Q243.35 11.87 243.42 11.81L243.42 11.81Q243.50 11.74 243.50 11.46L243.50 11.46L243.50 4.14Q243.50 3.82 243.31 3.73L243.31 3.73Q243.09 3.64 242.66 3.64L242.66 3.64ZM244.64 4.28L244.64 7.57Q244.82 7.70 245.53 7.71L245.53 7.71Q246.80 7.71 247.39 7.27L247.39 7.27Q247.97 6.84 247.97 5.92L247.97 5.92Q247.97 4.92 247.20 4.27L247.20 4.27Q246.44 3.64 245.06 3.64L245.06 3.64Q244.81 3.64 244.73 3.75L244.73 3.75Q244.64 3.84 244.64 4.28L244.64 4.28ZM259.62 3.64L259.03 3.64L259.04 3.08L262.55 3.08L262.55 3.64L262.32 3.64Q261.78 3.64 261.60 3.73L261.60 3.73Q261.47 3.81 261.47 4.28L261.47 4.28L261.47 11.22Q261.47 11.68 261.58 11.77Q261.69 11.87 262.22 11.87L262.22 11.87L262.77 11.87L262.78 12.41L259.20 12.41L259.18 11.87L259.55 11.87Q260.11 11.87 260.22 11.77Q260.33 11.67 260.33 11.25L260.33 11.25L260.33 4.14Q260.33 3.77 260.23 3.71L260.23 3.71Q260.12 3.64 259.62 3.64L259.62 3.64ZM270.80 5.35L270.30 5.33Q270.42 4.17 270.50 3.08L270.50 3.08L278.58 3.08Q278.50 4.13 278.48 4.53L278.48 4.53Q278.43 5.26 278.41 5.32L278.41 5.32L277.92 5.30Q278.00 4.34 278.00 4.16L278.00 4.16Q278.00 3.88 277.85 3.79L277.85 3.79Q277.68 3.69 277.28 3.69L277.28 3.69L275.67 3.69Q275.17 3.69 275.04 3.79L275.04 3.79Q274.95 3.87 274.94 4.36L274.94 4.36L274.94 11.22Q274.94 11.66 275.08 11.76L275.08 11.76Q275.24 11.87 275.75 11.87L275.75 11.87L276.32 11.87L276.33 12.41L272.64 12.40L272.64 11.87L272.86 11.87Q273.53 11.87 273.67 11.79Q273.81 11.70 273.81 11.28L273.81 11.28L273.81 4.48Q273.81 3.92 273.71 3.80Q273.62 3.69 273.19 3.69L273.19 3.69L271.72 3.69Q271.54 3.69 271.47 3.71Q271.40 3.72 271.29 3.72L271.29 3.72Q271.26 3.72 271.15 3.79L271.15 3.79Q271.07 3.84 271.04 3.86Q271.01 3.88 270.97 3.99L270.97 3.99Q270.94 4.05 270.92 4.14L270.92 4.14Q270.89 4.21 270.87 4.36L270.87 4.36Q270.84 4.59 270.84 4.61L270.84 4.61Q270.84 4.80 270.83 4.95L270.83 4.95Q270.83 5.02 270.82 5.15Q270.81 5.29 270.80 5.35L270.80 5.35ZM286.91 3.64L286.32 3.64L286.34 3.08L289.85 3.08L289.85 3.64L289.62 3.64Q289.07 3.64 288.90 3.73L288.90 3.73Q288.76 3.81 288.76 4.28L288.76 4.28L288.76 11.22Q288.76 11.68 288.87 11.77Q288.98 11.87 289.52 11.87L289.52 11.87L290.06 11.87L290.08 12.41L286.49 12.41L286.48 11.87L286.84 11.87Q287.40 11.87 287.52 11.77Q287.63 11.67 287.63 11.25L287.63 11.25L287.63 4.14Q287.63 3.77 287.53 3.71L287.53 3.71Q287.42 3.64 286.91 3.64L286.91 3.64ZM298.20 8.02L298.20 8.02Q298.20 6.86 298.67 5.83L298.67 5.83Q299.13 4.85 299.89 4.27L299.89 4.27Q300.63 3.69 301.53 3.37Q302.42 3.05 303.26 3.05L303.26 3.05Q304.13 3.05 304.80 3.16L304.80 3.16Q305.43 3.26 305.72 3.37L305.72 3.37Q306.03 3.48 306.07 3.48L306.07 3.48Q306.24 3.48 306.26 3.41L306.26 3.41Q306.28 3.33 306.28 3.09L306.28 3.09L306.28 2.97L306.82 2.97Q306.86 4.30 306.99 5.64L306.99 5.64L306.48 5.65Q306.46 5.40 306.44 5.26L306.44 5.26Q306.44 5.20 306.43 5.13Q306.43 5.07 306.42 5.02Q306.41 4.98 306.41 4.95L306.41 4.95Q306.39 4.84 306.39 4.74L306.39 4.74Q306.39 4.68 306.35 4.59L306.35 4.59Q306.35 4.57 306.31 4.55Q306.28 4.52 306.28 4.50L306.28 4.50Q306.26 4.44 306.19 4.41L306.19 4.41Q306.15 4.38 306.12 4.37Q306.09 4.36 306.07 4.35L306.07 4.35Q306.05 4.35 306.03 4.33Q306.00 4.31 305.96 4.29Q305.92 4.27 305.88 4.25L305.88 4.25Q305.66 4.16 305.63 4.14L305.63 4.14Q305.28 3.96 304.64 3.83L304.64 3.83Q303.97 3.71 303.30 3.71L303.30 3.71Q301.58 3.71 300.49 4.84L300.49 4.84Q299.38 5.99 299.39 7.62L299.39 7.62Q299.39 9.35 300.60 10.69L300.60 10.69Q301.81 12.02 303.63 12.02L303.63 12.02Q304.63 12.02 305.57 11.49L305.57 11.49Q306.52 10.94 306.55 10.58L306.55 10.58L306.59 9.41L307.08 9.41L307.00 11.45Q306.93 11.49 306.80 11.57L306.80 11.57Q306.75 11.60 306.28 11.85L306.28 11.85Q305.91 12.05 305.46 12.23L305.46 12.23Q305.10 12.39 304.45 12.51L304.45 12.51Q303.84 12.63 303.28 12.64L303.28 12.64Q300.90 12.64 299.54 11.39L299.54 11.39Q298.20 10.14 298.20 8.02ZM315.13 12.41L315.12 11.87L315.29 11.87Q315.68 11.87 315.81 11.73L315.81 11.73Q315.93 11.57 316.26 10.83L316.26 10.83L317.17 8.82L317.75 7.53Q318.01 6.97 318.06 6.86L318.06 6.86Q318.12 6.70 318.18 6.60Q318.23 6.51 318.24 6.45L318.24 6.45L318.34 6.21L319.76 2.74L320.06 2.74Q320.91 4.98 323.10 10.25L323.10 10.25Q323.55 11.34 323.74 11.64L323.74 11.64Q323.88 11.87 324.32 11.87L324.32 11.87L324.53 11.87L324.52 12.41L321.32 12.41L321.34 11.87L321.75 11.87Q322.37 11.87 322.37 11.70L322.37 11.70Q322.37 11.63 322.23 11.27L322.23 11.27L321.19 8.72L317.95 8.72L316.84 11.18Q316.70 11.50 316.70 11.63L316.70 11.63Q316.70 11.79 316.80 11.83Q316.89 11.87 317.28 11.87L317.28 11.87L317.85 11.87L317.85 12.41L315.13 12.41ZM319.63 4.79L318.21 8.10L320.95 8.10L319.63 4.79ZM332.75 3.64L332.26 3.64L332.27 3.08L335.86 3.08L335.86 3.64L335.23 3.64Q334.85 3.64 334.74 3.72Q334.63 3.80 334.63 4.16L334.63 4.16L334.63 11.22Q334.63 11.57 334.71 11.67Q334.80 11.77 335.09 11.77L335.09 11.77Q337.96 11.74 338.62 11.63L338.62 11.63Q338.83 11.61 338.91 11.39Q338.99 11.17 339.19 10.05L339.19 10.05L339.68 10.08L339.22 12.41L332.46 12.41L332.45 11.87L332.83 11.87Q333.34 11.87 333.41 11.80L333.41 11.80Q333.49 11.72 333.50 11.33L333.50 11.33L333.50 4.09Q333.50 3.80 333.34 3.72L333.34 3.72Q333.19 3.64 332.75 3.64L332.75 3.64ZM357.36 3.64L356.99 3.64L356.99 3.08L360.47 3.08L360.47 3.64L360.11 3.64Q359.60 3.64 359.45 3.75L359.45 3.75Q359.32 3.84 359.31 4.25L359.31 4.25L359.31 6.91L363.86 6.91L363.86 4.14Q363.86 3.77 363.77 3.71L363.77 3.71Q363.66 3.64 363.13 3.64L363.13 3.64L362.54 3.64L362.53 3.08L366.08 3.08L366.08 3.64L365.70 3.64Q365.22 3.64 365.11 3.74Q365.00 3.83 365.00 4.22L365.00 4.22L365.00 11.29Q365.00 11.67 365.13 11.77L365.13 11.77Q365.29 11.87 365.84 11.87L365.84 11.87L366.31 11.87L366.30 12.41L362.81 12.41L362.80 11.87L363.21 11.87Q363.67 11.87 363.77 11.77Q363.86 11.67 363.86 11.25L363.86 11.25L363.86 7.58L359.31 7.58L359.31 11.25Q359.31 11.67 359.46 11.77Q359.62 11.87 360.32 11.87L360.32 11.87L360.73 11.87L360.70 12.41L357.12 12.41L357.10 11.87L357.46 11.87Q358.01 11.87 358.08 11.80L358.08 11.80Q358.18 11.70 358.18 11.25L358.18 11.25L358.18 4.09Q358.18 3.76 358.04 3.71L358.04 3.71Q357.87 3.64 357.36 3.64L357.36 3.64ZM374.64 3.64L374.05 3.64L374.06 3.08L377.58 3.08L377.58 3.64L377.34 3.64Q376.80 3.64 376.63 3.73L376.63 3.73Q376.49 3.81 376.49 4.28L376.49 4.28L376.49 11.22Q376.49 11.68 376.60 11.77Q376.71 11.87 377.24 11.87L377.24 11.87L377.79 11.87L377.80 12.41L374.22 12.41L374.21 11.87L374.57 11.87Q375.13 11.87 375.24 11.77Q375.35 11.67 375.35 11.25L375.35 11.25L375.35 4.14Q375.35 3.77 375.25 3.71L375.25 3.71Q375.14 3.64 374.64 3.64L374.64 3.64ZM385.82 5.35L385.32 5.33Q385.44 4.17 385.53 3.08L385.53 3.08L393.61 3.08Q393.52 4.13 393.50 4.53L393.50 4.53Q393.46 5.26 393.44 5.32L393.44 5.32L392.94 5.30Q393.02 4.34 393.02 4.16L393.02 4.16Q393.02 3.88 392.88 3.79L392.88 3.79Q392.70 3.69 392.30 3.69L392.30 3.69L390.69 3.69Q390.19 3.69 390.07 3.79L390.07 3.79Q389.97 3.87 389.96 4.36L389.96 4.36L389.96 11.22Q389.96 11.66 390.11 11.76L390.11 11.76Q390.26 11.87 390.78 11.87L390.78 11.87L391.34 11.87L391.35 12.41L387.66 12.40L387.66 11.87L387.88 11.87Q388.55 11.87 388.69 11.79Q388.83 11.70 388.83 11.28L388.83 11.28L388.83 4.48Q388.83 3.92 388.74 3.80Q388.64 3.69 388.21 3.69L388.21 3.69L386.74 3.69Q386.56 3.69 386.49 3.71Q386.42 3.72 386.31 3.72L386.31 3.72Q386.29 3.72 386.17 3.79L386.17 3.79Q386.09 3.84 386.06 3.86Q386.03 3.88 385.99 3.99L385.99 3.99Q385.96 4.05 385.94 4.14L385.94 4.14Q385.91 4.21 385.89 4.36L385.89 4.36Q385.86 4.59 385.86 4.61L385.86 4.61Q385.86 4.80 385.85 4.95L385.85 4.95Q385.85 5.02 385.84 5.15Q385.83 5.29 385.82 5.35L385.82 5.35ZM401.32 10.04L401.32 10.04L401.81 9.98L401.99 10.85Q402.10 11.33 402.17 11.41Q402.24 11.49 402.65 11.64L402.65 11.64Q403.49 11.95 404.39 11.95L404.39 11.95Q405.17 11.95 405.71 11.49L405.71 11.49Q406.25 11.04 406.25 10.26L406.25 10.26Q406.25 9.65 405.79 9.21L405.79 9.21Q405.31 8.76 404.46 8.30L404.46 8.30L403.88 7.98Q403.14 7.55 402.90 7.36L402.90 7.36Q402.54 7.08 402.23 6.59Q401.92 6.10 401.92 5.46L401.92 5.46Q401.92 4.39 402.76 3.68Q403.60 2.97 404.71 2.97L404.71 2.97Q404.99 2.97 405.34 3.04L405.34 3.04Q405.54 3.08 405.87 3.17L405.87 3.17L406.11 3.25Q406.21 3.25 406.25 3.16L406.25 3.16Q406.30 3.05 406.30 2.98L406.30 2.98L406.31 2.88L406.79 2.85L407.00 5.41L406.50 5.43L406.38 4.18Q405.63 3.62 404.47 3.62L404.47 3.62Q403.83 3.62 403.32 4.05L403.32 4.05Q402.84 4.47 402.84 5.12L402.84 5.12Q402.84 5.72 403.29 6.17L403.29 6.17Q403.72 6.60 404.59 7.08L404.59 7.08L405.36 7.50Q406.31 8.03 406.85 8.59Q407.38 9.15 407.38 9.92L407.38 9.92Q407.38 10.99 406.53 11.76L406.53 11.76Q405.66 12.54 404.20 12.54L404.20 12.54Q403.64 12.54 403.14 12.41Q402.64 12.29 402.58 12.29L402.58 12.29Q402.33 12.29 402.33 12.58L402.33 12.58L402.34 12.76L401.86 12.80Q401.80 12.41 401.32 10.04ZM416.06 11.84L416.06 11.84Q416.06 11.68 416.34 11.45Q416.62 11.21 416.73 11.21L416.73 11.21Q416.92 11.21 417.16 11.49L417.16 11.49Q417.39 11.76 417.39 11.91L417.39 11.91Q417.39 12.09 417.12 12.32L417.12 12.32Q416.84 12.56 416.68 12.55L416.68 12.55Q416.56 12.55 416.31 12.29Q416.06 12.02 416.06 11.84Z"></path></g></svg>