<svg data-v-423bf9ae="" xmlns="http://www.w3.org/2000/svg" viewBox="0 0 566.9243673782718 60" class="font"><!----><!----><!----><g data-v-423bf9ae="" id="17926b53-46fe-4b8f-adcd-16b9791c9ab8" fill="white" transform="matrix(5.395682583276895,0,0,5.395682583276895,-1.5647553715232903,2.589928696561703)"><path d="M0.29 10.50L1.96 10.50L3.33 3.25C3.40 2.91 3.42 2.66 3.42 2.66L6.19 10.50L8.43 10.50L10.30 0.88L8.64 0.88L7.24 8.19C7.18 8.46 7.14 8.76 7.14 8.76L4.35 0.88L2.16 0.88ZM13.62 10.64C15.47 10.64 16.35 9.93 16.97 8.71L15.39 8.20C15.12 8.88 14.62 9.39 13.79 9.39C12.87 9.39 12.29 8.65 12.45 7.29L12.46 7.14L17.46 7.14C17.56 6.66 17.63 6.08 17.63 5.66C17.63 3.98 16.67 2.86 14.59 2.86C12.08 2.86 10.85 4.41 10.60 6.78C10.35 9.09 11.14 10.64 13.62 10.64ZM14.55 4.00C15.20 4.00 15.97 4.33 15.95 5.53C15.95 5.63 15.95 5.77 15.93 5.91L12.61 5.91C12.89 4.45 13.69 4.00 14.55 4.00ZM23.80 4.47L24.11 2.87C23.95 2.86 23.63 2.86 23.62 2.86C22.58 2.86 21.71 3.56 21.25 4.49C21.35 3.96 21.46 3.28 21.50 3.00L19.75 3.00C19.71 3.40 19.63 3.95 19.50 4.59L18.34 10.50L20.16 10.50L20.87 6.85C21.17 5.28 21.94 4.42 23.16 4.42C23.48 4.42 23.62 4.44 23.80 4.47ZM26.42 10.64C27.75 10.64 28.46 10.04 28.94 9.28C28.88 9.67 28.84 10.09 28.81 10.50L30.63 10.50C30.67 10.07 30.76 9.38 30.84 8.90L32.62-0.48L30.83-0.48L30.14 3.07C30.06 3.47 30.00 3.84 29.95 4.17C29.71 3.49 29.11 2.83 27.73 2.83C26.05 2.83 24.67 3.92 24.22 6.62C23.90 8.53 24.16 10.64 26.42 10.64ZM27.19 9.37C25.82 9.37 25.91 7.71 26.14 6.54C26.50 4.63 27.23 4.07 28.15 4.07C29.61 4.07 29.69 5.36 29.43 6.83C29.09 8.71 28.27 9.37 27.19 9.37ZM38.43 8.79C38.68 7.18 37.67 6.71 36.12 6.03C34.89 5.50 34.83 5.03 34.89 4.70C34.96 4.30 35.34 4.07 35.88 4.07C36.41 4.07 37.09 4.23 37.27 4.98L38.82 4.69C38.57 3.57 37.51 2.86 35.90 2.86C34.23 2.86 33.33 3.67 33.21 4.66C33.07 5.74 33.49 6.64 35.15 7.36C36.32 7.87 36.78 8.09 36.74 8.64C36.69 9.16 36.34 9.45 35.43 9.45C34.36 9.45 33.99 8.85 33.84 8.27L32.19 8.57C32.35 9.65 33.19 10.64 35.42 10.64C37.06 10.64 38.23 10.02 38.43 8.79ZM51.18 10.58C51.58 10.58 51.84 10.53 52.14 10.43L52.40 9.04C52.19 9.11 51.93 9.16 51.65 9.16C51.06 9.16 50.71 9.11 50.29 8.81C51.31 7.83 51.91 6.75 52.29 5.87L51.02 5.31C50.65 6.08 50.09 7.04 49.38 7.78C48.93 7.13 48.50 6.26 48.23 5.59C50.53 4.68 51.44 3.96 51.44 2.66C51.44 1.47 50.50 0.81 49.01 0.81C47.24 0.81 46.17 1.85 46.17 3.46C46.17 3.96 46.30 4.54 46.42 4.97C44.31 5.84 43.54 6.75 43.54 8.26C43.54 9.74 44.65 10.64 46.38 10.64C47.73 10.64 48.50 10.25 49.06 9.83C49.77 10.43 50.53 10.58 51.18 10.58ZM46.65 9.25C45.88 9.25 45.28 8.83 45.28 8.04C45.28 7.18 45.78 6.64 46.83 6.15C47.22 7.14 47.68 8.09 48.16 8.79C47.75 9.04 47.26 9.25 46.65 9.25ZM47.70 3.40C47.70 2.49 48.27 1.99 49 1.99C49.56 1.99 49.91 2.18 49.91 2.77C49.91 3.47 49.45 3.81 47.85 4.42C47.77 4.09 47.70 3.70 47.70 3.40ZM57.50 10.50L59.16 10.50L60.54 3.25C60.61 2.91 60.62 2.66 60.62 2.66L63.39 10.50L65.63 10.50L67.51 0.88L65.84 0.88L64.44 8.19C64.39 8.46 64.34 8.76 64.34 8.76L61.56 0.88L59.36 0.88ZM67.55 10.50L69.37 10.50L70.84 3.00L69.02 3.00ZM69.19 1.85L71.06 1.85L71.41 0.14L69.54 0.14ZM71.72 4.19L72.67 4.19L71.76 8.79C71.60 9.59 71.78 10.64 73.08 10.64C73.68 10.64 74.16 10.61 74.59 10.60L74.86 9.27L74.02 9.27C73.57 9.27 73.44 9.04 73.54 8.58L74.45 4.19L75.88 4.19L76.16 3.00L74.70 3.00L75.19 0.64L73.50 0.64L72.97 3.00L71.99 3.00ZM81.68 4.47L81.98 2.87C81.83 2.86 81.51 2.86 81.49 2.86C80.46 2.86 79.59 3.56 79.13 4.49C79.23 3.96 79.34 3.28 79.38 3.00L77.63 3.00C77.59 3.40 77.50 3.95 77.38 4.59L76.22 10.50L78.04 10.50L78.75 6.85C79.04 5.28 79.81 4.42 81.03 4.42C81.35 4.42 81.49 4.44 81.68 4.47ZM87.60 7.17C87.14 9.13 86.31 9.38 85.44 9.38C83.96 9.38 83.76 7.74 84.07 6.30C84.48 4.38 85.43 4.10 86.18 4.10C87.67 4.10 87.93 5.74 87.60 7.17ZM89.47 7.32C90.02 4.90 89.15 2.84 86.34 2.84C83.93 2.84 82.57 4.12 82.15 6.30C81.69 8.68 82.74 10.64 85.30 10.64C87.56 10.64 88.98 9.48 89.47 7.32ZM93.58 3.00L91.76 3.00L90.87 7.59C90.55 9.32 90.89 10.64 92.88 10.64C94.11 10.64 94.95 10.05 95.45 9.16C95.38 9.60 95.33 10.02 95.28 10.50L97.05 10.50C97.10 10.00 97.17 9.37 97.27 8.89L98.45 3.00L96.61 3.00L95.79 7.18C95.54 8.43 94.65 9.27 93.65 9.27C92.32 9.27 92.62 7.97 92.78 7.17ZM104.97 8.79C105.22 7.18 104.22 6.71 102.66 6.03C101.43 5.50 101.37 5.03 101.43 4.70C101.50 4.30 101.88 4.07 102.42 4.07C102.96 4.07 103.63 4.23 103.81 4.98L105.36 4.69C105.11 3.57 104.05 2.86 102.44 2.86C100.77 2.86 99.88 3.67 99.75 4.66C99.61 5.74 100.03 6.64 101.70 7.36C102.86 7.87 103.32 8.09 103.28 8.64C103.24 9.16 102.89 9.45 101.98 9.45C100.90 9.45 100.53 8.85 100.38 8.27L98.73 8.57C98.90 9.65 99.74 10.64 101.96 10.64C103.60 10.64 104.78 10.02 104.97 8.79Z"></path></g><!----><!----></svg>