<svg data-v-423bf9ae="" xmlns="http://www.w3.org/2000/svg" viewBox="0 0 300.54745783123303 60" class="font"><!----><!----><!----><g data-v-423bf9ae="" id="4cf0f409-4040-4141-b267-5dc614d25627" fill="white" transform="matrix(5.474453012044838,0,0,5.474453012044838,0.9306556643927308,-14.726279392488486)"><path d="M2.67 13.47L4.54 2.87L3.89 2.87C2.81 8.97 2.73 9.51 2.67 9.91L2.63 9.91C2.65 9.52 2.66 8.97 2.59 2.87L1.69 2.87L-0.17 13.47L0.48 13.47C1.76 6.03 1.88 5.42 1.99 4.62L2.04 4.62C2.03 5.40 2.07 6.20 2.28 13.47ZM6.38 13.47L6.52 12.67L4.90 12.67L5.64 8.44L7.27 8.44L7.39 7.70L5.77 7.70L6.48 3.64L8.12 3.64L8.26 2.87L5.95 2.87L4.09 13.47ZM10.63 13.47C10.63 12.91 10.65 12.67 10.82 11.33C10.98 10.23 11.03 9.79 11.03 9.27C11.03 8.95 10.99 8.67 10.79 8.51L10.81 8.46C10.98 8.40 11.16 8.23 11.33 7.91C11.52 7.49 11.63 7.13 11.84 5.94C12.03 4.91 12.08 4.41 12.08 3.95C12.08 3.36 11.82 2.87 11.16 2.87L9.62 2.87L7.76 13.47L8.43 13.47L9.24 8.81L9.88 8.81C10.30 8.81 10.36 9.00 10.36 9.42C10.36 9.73 10.29 10.19 10.12 11.48C9.95 12.57 9.91 12.99 9.91 13.23C9.91 13.33 9.91 13.38 9.93 13.47ZM9.37 8.11L10.15 3.63L10.96 3.63C11.30 3.63 11.41 3.85 11.41 4.19C11.41 4.44 11.34 4.83 11.17 5.84C10.93 7.18 10.84 7.53 10.64 7.81C10.46 8.06 10.29 8.11 9.98 8.11ZM13.36 13.47C14.06 13.47 14.36 13.29 14.67 12.66C14.94 12.04 15.11 11.54 15.65 8.39C16.13 5.73 16.25 4.79 16.25 4.20C16.25 3.37 16.09 2.87 15.22 2.87L13.76 2.87L11.90 13.47ZM12.70 12.68L14.29 3.64L15.06 3.64C15.54 3.64 15.60 3.92 15.60 4.38C15.60 4.87 15.46 5.66 14.99 8.27C14.48 11.21 14.35 11.68 14.15 12.18C13.99 12.57 13.82 12.68 13.37 12.68ZM16.65 9.93C16.44 10.78 16.24 11.68 16.24 12.53C16.24 13.27 16.55 13.65 17.21 13.65C17.79 13.65 18.13 13.52 18.41 13.02C18.68 12.57 18.87 11.86 19.04 11.00C19.28 9.77 19.32 9.45 19.32 9.13C19.32 8.74 19.18 8.48 19.00 8.26C18.76 7.98 18.19 7.50 18.02 7.25C17.89 7.06 17.85 6.90 17.85 6.71C17.85 6.51 17.91 6.17 18.07 5.19C18.17 4.63 18.24 4.33 18.37 4.00C18.52 3.58 18.70 3.44 19.03 3.44C19.36 3.44 19.54 3.54 19.54 3.92C19.54 4.62 19.38 5.46 19.18 6.16L19.80 6.16C20.02 5.31 20.19 4.48 20.19 3.77C20.19 2.98 19.82 2.69 19.15 2.69C18.49 2.69 18.14 2.94 17.86 3.54C17.70 3.91 17.56 4.40 17.46 5.00C17.28 6.06 17.22 6.48 17.22 6.76C17.22 7.14 17.28 7.38 17.53 7.71C17.70 7.94 18.24 8.43 18.47 8.74C18.62 8.95 18.68 9.06 18.68 9.25C18.68 9.42 18.63 9.72 18.42 10.86C18.27 11.70 18.10 12.26 17.92 12.59C17.77 12.84 17.60 12.88 17.35 12.88C16.94 12.88 16.87 12.63 16.87 12.32C16.87 11.56 17.07 10.77 17.25 9.93ZM25.27 13.47L25.27 13.41L24.91 11.12L26.15 8.16L26.17 8.09L25.52 8.09L24.74 10.11L24.68 10.11L24.40 7.78L24.85 7.42C25.49 6.87 25.68 6.57 25.91 5.24C26.07 4.34 26.14 3.86 26.14 3.53C26.14 2.81 25.86 2.69 25.28 2.69C24.26 2.69 24.02 2.97 23.74 4.54C23.59 5.35 23.55 5.67 23.55 5.99C23.55 6.24 23.58 6.51 23.63 6.89L23.73 7.56L23.41 7.85C22.65 8.54 22.48 8.92 22.26 10.19C22.02 11.52 21.94 12.19 21.94 12.66C21.94 13.52 22.25 13.65 22.92 13.65C23.67 13.65 24.05 13.27 24.43 12.15L24.47 12.15L24.65 13.47ZM23.90 12.00C23.62 12.67 23.46 12.85 23.13 12.85C22.81 12.85 22.64 12.81 22.64 12.35C22.64 12.00 22.74 11.41 22.90 10.44C23.14 9.11 23.23 8.83 23.56 8.47L23.86 8.19L24.26 11.10ZM24.30 7.15C24.19 6.61 24.15 6.29 24.15 5.99C24.15 5.68 24.19 5.40 24.30 4.76C24.53 3.54 24.61 3.39 25.13 3.39C25.41 3.39 25.55 3.42 25.55 3.79C25.55 4.03 25.49 4.42 25.37 5.10C25.13 6.43 25.10 6.47 24.60 6.89ZM31.14 13.47L33.00 2.87L32.35 2.87C31.28 8.97 31.19 9.51 31.14 9.91L31.09 9.91C31.11 9.52 31.12 8.97 31.05 2.87L30.16 2.87L28.29 13.47L28.94 13.47C30.23 6.03 30.34 5.42 30.45 4.62L30.51 4.62C30.49 5.40 30.53 6.20 30.74 13.47ZM33.26 13.47L35.13 2.87L34.43 2.87L32.56 13.47ZM36.16 13.47L37.88 3.64L38.89 3.64L39.03 2.87L36.30 2.87L36.16 3.64L37.20 3.64L35.48 13.47ZM41.22 13.47C41.22 12.91 41.24 12.67 41.41 11.33C41.57 10.23 41.62 9.79 41.62 9.27C41.62 8.95 41.58 8.67 41.38 8.51L41.40 8.46C41.57 8.40 41.75 8.23 41.92 7.91C42.11 7.49 42.22 7.13 42.43 5.94C42.62 4.91 42.67 4.41 42.67 3.95C42.67 3.36 42.41 2.87 41.75 2.87L40.21 2.87L38.35 13.47L39.02 13.47L39.83 8.81L40.47 8.81C40.89 8.81 40.95 9.00 40.95 9.42C40.95 9.73 40.88 10.19 40.71 11.48C40.54 12.57 40.50 12.99 40.50 13.23C40.50 13.33 40.50 13.38 40.52 13.47ZM39.96 8.11L40.74 3.63L41.55 3.63C41.89 3.63 42 3.85 42 4.19C42 4.44 41.93 4.83 41.76 5.84C41.52 7.18 41.43 7.53 41.23 7.81C41.05 8.06 40.88 8.11 40.57 8.11ZM45.01 12.78C45.30 12.14 45.49 11.49 46.03 8.43C46.54 5.56 46.66 4.62 46.66 3.98C46.66 3.19 46.49 2.69 45.63 2.69C44.97 2.69 44.60 2.91 44.31 3.56C44.02 4.21 43.83 4.83 43.29 7.94C42.78 10.79 42.67 11.75 42.67 12.35C42.67 13.20 42.95 13.65 43.69 13.65C44.37 13.65 44.72 13.44 45.01 12.78ZM44.51 12.31C44.34 12.73 44.18 12.85 43.83 12.85C43.51 12.85 43.36 12.74 43.36 12.19C43.36 11.63 43.46 10.89 43.96 8.08C44.49 5.01 44.63 4.55 44.84 3.99C44.98 3.60 45.18 3.44 45.50 3.44C45.85 3.44 45.99 3.57 46.00 3.98C46.02 4.52 45.95 5.04 45.37 8.32C44.84 11.26 44.72 11.79 44.51 12.31ZM49.06 10.71C48.85 11.96 48.78 12.21 48.58 12.52C48.43 12.75 48.23 12.85 47.96 12.85C47.52 12.85 47.39 12.63 47.39 12.28C47.39 12.03 47.46 11.65 47.61 10.71L49.00 2.87L48.29 2.87L46.90 10.71C46.73 11.62 46.68 12.11 46.68 12.46C46.68 13.26 47.08 13.65 47.81 13.65C48.41 13.65 48.85 13.47 49.13 12.96C49.39 12.52 49.49 12.12 49.74 10.71L51.13 2.87L50.44 2.87ZM51.18 9.93C50.97 10.78 50.78 11.68 50.78 12.53C50.78 13.27 51.09 13.65 51.74 13.65C52.33 13.65 52.67 13.52 52.95 13.02C53.21 12.57 53.41 11.86 53.58 11.00C53.82 9.77 53.86 9.45 53.86 9.13C53.86 8.74 53.72 8.48 53.54 8.26C53.30 7.98 52.72 7.50 52.56 7.25C52.43 7.06 52.39 6.90 52.39 6.71C52.39 6.51 52.44 6.17 52.61 5.19C52.71 4.63 52.78 4.33 52.91 4.00C53.06 3.58 53.24 3.44 53.56 3.44C53.90 3.44 54.08 3.54 54.08 3.92C54.08 4.62 53.91 5.46 53.72 6.16L54.33 6.16C54.56 5.31 54.73 4.48 54.73 3.77C54.73 2.98 54.36 2.69 53.69 2.69C53.03 2.69 52.68 2.94 52.40 3.54C52.23 3.91 52.09 4.40 52.00 5.00C51.81 6.06 51.76 6.48 51.76 6.76C51.76 7.14 51.81 7.38 52.07 7.71C52.23 7.94 52.78 8.43 53.00 8.74C53.16 8.95 53.21 9.06 53.21 9.25C53.21 9.42 53.17 9.72 52.96 10.86C52.81 11.70 52.64 12.26 52.46 12.59C52.30 12.84 52.14 12.88 51.88 12.88C51.48 12.88 51.41 12.63 51.41 12.32C51.41 11.56 51.60 10.77 51.79 9.93Z"></path></g><!----><!----></svg>